<svg width="20" height="20" viewBox="0 0 20 20" fill="none" xmlns="http://www.w3.org/2000/svg">
<path d="M17.143 4.09831C17.143 4.85497 14.9638 5.4603 12.2701 5.4603C9.57639 5.4603 7.39722 4.85497 7.39722 4.09831C7.39722 3.34165 9.57639 2.73633 12.2701 2.73633C14.9638 2.73633 17.143 3.34165 17.143 4.09831Z" stroke="#603973" stroke-miterlimit="10" stroke-linecap="round"/>
<path d="M17.1428 6.51953C17.1428 7.27619 14.9636 7.88152 12.2699 7.88152C11.7554 7.88152 11.2712 7.85125 10.7869 7.82098C10.7264 7.82098 7.82079 7.45779 7.79053 7.42752" stroke="#603973" stroke-miterlimit="10" stroke-linecap="round"/>
<path d="M17.143 9.15332C17.143 9.87971 15.0848 10.485 12.5122 10.5153" stroke="#603973" stroke-miterlimit="10" stroke-linecap="round"/>
<path d="M17.143 11.7861C17.143 12.5125 15.1151 13.0876 12.5728 13.1481" stroke="#603973" stroke-miterlimit="10" stroke-linecap="round"/>
<path d="M7.39722 4.52148V7.60865" stroke="#603973" stroke-miterlimit="10" stroke-linecap="round"/>
<path d="M17.1428 4.52148V11.7551" stroke="#603973" stroke-miterlimit="10" stroke-linecap="round"/>
<path d="M12.4516 12.452C12.4516 15.1154 10.3027 17.2643 7.63926 17.2643C5.00609 17.2643 2.85718 15.1154 2.85718 12.452C2.85718 9.78856 5.00609 7.63965 7.66953 7.63965C10.3027 7.66991 12.4516 9.81882 12.4516 12.452Z" stroke="#603973" stroke-miterlimit="10" stroke-linecap="round"/>
<mask id="path-8-inside-1" fill="white">
<path d="M7.39719 15.5689V14.8122C6.97346 14.8122 6.51947 14.6609 6.24707 14.4793L6.42867 13.9647C6.70107 14.1463 7.09453 14.2977 7.51826 14.2977C8.06305 14.2977 8.42625 13.995 8.42625 13.5713C8.42625 13.1476 8.12358 12.9054 7.57879 12.6633C6.79186 12.3606 6.33787 12.0277 6.33787 11.3618C6.33787 10.7263 6.79186 10.2723 7.48799 10.1512V9.39453H7.94199V10.1209C8.39598 10.1209 8.69864 10.242 8.91051 10.3933L8.72891 10.8776C8.57758 10.7868 8.27491 10.6355 7.79065 10.6355C7.21559 10.6355 7.00373 10.9684 7.00373 11.271C7.00373 11.6645 7.27613 11.8461 7.94199 12.1185C8.72891 12.4514 9.12237 12.8146 9.12237 13.5108C9.12237 14.1161 8.69864 14.6609 7.94199 14.7819V15.5689H7.39719Z"/>
</mask>
<path d="M7.39719 15.5689H6.39719V16.5689H7.39719V15.5689ZM7.39719 14.8122H8.39719V13.8122H7.39719V14.8122ZM6.24707 14.4793L5.30408 14.1465L5.04522 14.8799L5.69237 15.3113L6.24707 14.4793ZM6.42867 13.9647L6.98337 13.1327L5.91359 12.4195L5.48568 13.6319L6.42867 13.9647ZM7.57879 12.6633L7.98493 11.7495L7.9616 11.7391L7.93777 11.7299L7.57879 12.6633ZM7.48799 10.1512L7.65933 11.1364L8.48799 10.9923V10.1512H7.48799ZM7.48799 9.39453V8.39453H6.48799V9.39453H7.48799ZM7.94199 9.39453H8.94199V8.39453H7.94199V9.39453ZM7.94199 10.1209H6.94199V11.1209H7.94199V10.1209ZM8.91051 10.3933L9.84684 10.7444L10.1164 10.0257L9.49175 9.57959L8.91051 10.3933ZM8.72891 10.8776L8.21441 11.7351L9.24375 12.3527L9.66524 11.2287L8.72891 10.8776ZM7.94199 12.1185L8.33165 11.1975L8.32062 11.193L7.94199 12.1185ZM7.94199 14.7819L7.78399 13.7945L6.94199 13.9292V14.7819H7.94199ZM7.94199 15.5689V16.5689H8.94199V15.5689H7.94199ZM8.39719 15.5689V14.8122H6.39719V15.5689H8.39719ZM7.39719 13.8122C7.29882 13.8122 7.17737 13.7936 7.05439 13.7565C6.92867 13.7186 6.84071 13.6732 6.80177 13.6472L5.69237 15.3113C6.12998 15.6031 6.77717 15.8122 7.39719 15.8122V13.8122ZM7.19006 14.8121L7.37166 14.2976L5.48568 13.6319L5.30408 14.1465L7.19006 14.8121ZM5.87397 14.7968C6.28469 15.0706 6.86807 15.2977 7.51826 15.2977V13.2977C7.32099 13.2977 7.11745 13.2221 6.98337 13.1327L5.87397 14.7968ZM7.51826 15.2977C7.96936 15.2977 8.43327 15.1722 8.80575 14.8706C9.19281 14.5573 9.42625 14.093 9.42625 13.5713H7.42625C7.42625 13.5317 7.43541 13.4805 7.46083 13.428C7.48595 13.3761 7.51906 13.339 7.54735 13.3161C7.60203 13.2719 7.61195 13.2977 7.51826 13.2977V15.2977ZM9.42625 13.5713C9.42625 13.0769 9.2326 12.6608 8.91392 12.3421C8.63598 12.0641 8.28521 11.8829 7.98493 11.7495L7.17265 13.5771C7.28619 13.6276 7.3669 13.6692 7.42428 13.7039C7.48192 13.7387 7.50064 13.7572 7.49971 13.7563C7.49573 13.7523 7.47182 13.7265 7.4513 13.6786C7.43018 13.6294 7.42625 13.5884 7.42625 13.5713H9.42625ZM7.93777 11.7299C7.57377 11.5899 7.41963 11.489 7.35737 11.4289C7.33623 11.4085 7.33802 11.4043 7.34198 11.4137C7.34574 11.4226 7.33787 11.4118 7.33787 11.3618H5.33787C5.33787 11.9644 5.56041 12.4745 5.9691 12.8686C6.33057 13.2172 6.79689 13.434 7.21981 13.5966L7.93777 11.7299ZM7.33787 11.3618C7.33787 11.3236 7.34436 11.3025 7.34839 11.2924C7.3524 11.2823 7.35876 11.2712 7.37196 11.2575C7.39865 11.2298 7.47944 11.1677 7.65933 11.1364L7.31665 9.16598C6.2621 9.34938 5.33787 10.1272 5.33787 11.3618H7.33787ZM8.48799 10.1512V9.39453H6.48799V10.1512H8.48799ZM7.48799 10.3945H7.94199V8.39453H7.48799V10.3945ZM6.94199 9.39453V10.1209H8.94199V9.39453H6.94199ZM7.94199 11.1209C8.0791 11.1209 8.16764 11.139 8.22136 11.1557C8.27373 11.1719 8.30653 11.1908 8.32927 11.2071L9.49175 9.57959C9.09912 9.29914 8.59025 9.12092 7.94199 9.12092V11.1209ZM7.97418 10.0422L7.79258 10.5265L9.66524 11.2287L9.84684 10.7444L7.97418 10.0422ZM9.24341 10.0201C8.98326 9.864 8.50372 9.63545 7.79065 9.63545V11.6355C7.92612 11.6355 8.02103 11.6562 8.08239 11.6757C8.14363 11.6951 8.18519 11.7175 8.21441 11.7351L9.24341 10.0201ZM7.79065 9.63545C7.30722 9.63545 6.8382 9.77974 6.4854 10.1218C6.13853 10.4582 6.00373 10.8905 6.00373 11.271H8.00373C8.00373 11.3489 7.97486 11.4634 7.87769 11.5576C7.77459 11.6576 7.69903 11.6355 7.79065 11.6355V9.63545ZM6.00373 11.271C6.00373 11.7692 6.20685 12.1887 6.57551 12.5021C6.86354 12.7469 7.23953 12.9116 7.56335 13.044L8.32062 11.193C8.16434 11.129 8.0537 11.0795 7.97294 11.0378C7.89056 10.9953 7.86689 10.9749 7.87081 10.9782C7.8808 10.9867 7.92538 11.0283 7.96202 11.1064C7.99914 11.1856 8.00373 11.2501 8.00373 11.271H6.00373ZM7.55235 13.0395C7.90193 13.1874 8.03403 13.2917 8.08271 13.346C8.09971 13.3649 8.10417 13.3752 8.1073 13.3839C8.11141 13.3954 8.12237 13.4317 8.12237 13.5108H10.1224C10.1224 12.9473 9.95262 12.4356 9.57185 12.0109C9.22706 11.6263 8.76897 11.3826 8.33163 11.1975L7.55235 13.0395ZM8.12237 13.5108C8.12237 13.576 8.10132 13.6264 8.06645 13.6659C8.03321 13.7035 7.95485 13.7672 7.78399 13.7945L8.09998 15.7694C9.31124 15.5756 10.1224 14.6377 10.1224 13.5108H8.12237ZM6.94199 14.7819V15.5689H8.94199V14.7819H6.94199ZM7.94199 14.5689H7.39719V16.5689H7.94199V14.5689Z" fill="#603973" mask="url(#path-8-inside-1)"/>
</svg>
