<svg width="20" height="20" viewBox="0 0 20 20" fill="none" xmlns="http://www.w3.org/2000/svg">
<path d="M13.5716 16.4294V15.0008C13.5716 14.2431 13.2706 13.5164 12.7348 12.9805C12.199 12.4447 11.4723 12.1437 10.7145 12.1437H5.00021C4.24245 12.1437 3.51572 12.4447 2.9799 12.9805C2.44409 13.5164 2.14307 14.2431 2.14307 15.0008V16.4294M17.8574 16.4294V15.0008C17.8569 14.3678 17.6462 13.7528 17.2583 13.2525C16.8705 12.7522 16.3274 12.3948 15.7145 12.2366M12.8574 3.66512C13.4719 3.82248 14.0167 4.17991 14.4057 4.68106C14.7947 5.18221 15.0058 5.79857 15.0058 6.43298C15.0058 7.06739 14.7947 7.68375 14.4057 8.1849C14.0167 8.68605 13.4719 9.04348 12.8574 9.20084M10.7145 6.42941C10.7145 8.00736 9.43531 9.28655 7.85735 9.28655C6.2794 9.28655 5.00021 8.00736 5.00021 6.42941C5.00021 4.85145 6.2794 3.57227 7.85735 3.57227C9.43531 3.57227 10.7145 4.85145 10.7145 6.42941Z" stroke="#603973" stroke-linecap="round" stroke-linejoin="round"/>
</svg>
