<svg width="23" height="23" viewBox="0 0 23 23" fill="none" xmlns="http://www.w3.org/2000/svg">
<path d="M11.4999 8.15495L11.4999 6.23828M16.757 17.7383L6.24272 17.7383C5.51686 17.7383 4.92843 17.1253 4.92843 16.3692L4.92843 9.52399C4.92843 8.76789 5.51686 8.15495 6.24272 8.15495L16.757 8.15495C17.4829 8.15495 18.0713 8.76789 18.0713 9.524L18.0713 16.3692C18.0713 17.1253 17.4829 17.7383 16.757 17.7383Z" stroke="#6B7682" stroke-linecap="round" stroke-linejoin="round"/>
<circle cx="11.5003" cy="4.59403" r="1.14286" stroke="#6B7682"/>
<line x1="9.53613" y1="14.7734" x2="13.4647" y2="14.7734" stroke="#6B7682" stroke-linecap="round"/>
<line x1="2.96387" y1="11.666" x2="2.96387" y2="13.9517" stroke="#6B7682" stroke-linecap="round"/>
<line x1="20.2139" y1="11.666" x2="20.2139" y2="13.9517" stroke="#6B7682" stroke-linecap="round"/>
<path d="M9.03544 11.9874C9.03544 12.4411 8.66767 12.8089 8.21401 12.8089C7.76034 12.8089 7.39258 12.4411 7.39258 11.9874C7.39258 11.5338 7.76034 11.166 8.21401 11.166C8.66767 11.166 9.03544 11.5338 9.03544 11.9874Z" fill="#6B7682"/>
<path d="M15.6067 11.9874C15.6067 12.4411 15.239 12.8089 14.7853 12.8089C14.3316 12.8089 13.9639 12.4411 13.9639 11.9874C13.9639 11.5338 14.3316 11.166 14.7853 11.166C15.239 11.166 15.6067 11.5338 15.6067 11.9874Z" fill="#6B7682"/>
</svg>
