<svg width="18" height="18" viewBox="0 0 18 18" fill="none" xmlns="http://www.w3.org/2000/svg">
<path d="M11.5716 14.7863V13.5006C11.5716 12.8186 11.3007 12.1645 10.8184 11.6823C10.3362 11.2 9.68212 10.9291 9.00014 10.9291H4.50014C3.81815 10.9291 3.1641 11.2 2.68186 11.6823C2.19963 12.1645 1.92871 12.8186 1.92871 13.5006V14.7863M12.8573 6.42913L16.0716 9.64342M16.0716 6.42913L12.8573 9.64342M9.32157 5.78627C9.32157 7.20643 8.1703 8.3577 6.75014 8.3577C5.32998 8.3577 4.17871 7.20643 4.17871 5.78627C4.17871 4.36611 5.32998 3.21484 6.75014 3.21484C8.1703 3.21484 9.32157 4.36611 9.32157 5.78627Z" stroke="#555555" stroke-linecap="round" stroke-linejoin="round"/>
</svg>
