<svg width="17" height="18" viewBox="0 0 17 18" fill="none" xmlns="http://www.w3.org/2000/svg">
<path d="M13.5716 13.2494C13.5716 13.5715 13.4436 13.8803 13.2159 14.1081C12.9882 14.3358 12.6793 14.4637 12.3573 14.4637H2.643C2.32095 14.4637 2.01209 14.3358 1.78437 14.1081C1.55664 13.8803 1.42871 13.5715 1.42871 13.2494V4.74944C1.42871 4.42739 1.55664 4.11853 1.78437 3.89081C2.01209 3.66309 2.32095 3.53516 2.643 3.53516H5.67871L6.893 5.35658H12.3573C12.6793 5.35658 12.9882 5.48452 13.2159 5.71224C13.4436 5.93996 13.5716 6.24882 13.5716 6.57087V13.2494Z" fill="#76B5FF"/>
<rect x="3" y="5" width="8" height="6" fill="white"/>
<path d="M13.2159 14.2695C13.4436 14.1477 13.5716 13.9823 13.5716 13.81L16.6429 8.5H4.5L1.42871 13.81C1.42871 13.9823 1.55664 14.1477 1.78437 14.2695C2.01209 14.3914 2.32095 14.4599 2.643 14.4599H12.3573C12.6793 14.4599 12.9882 14.3914 13.2159 14.2695Z" fill="#3784DD"/>
</svg>
