<svg width="16" height="16" viewBox="0 0 16 16" fill="none" xmlns="http://www.w3.org/2000/svg">
<path d="M10.8572 13.1431V12.0003C10.8572 11.3941 10.6164 10.8127 10.1877 10.384C9.75909 9.95538 9.17771 9.71457 8.5715 9.71457H4.00007C3.39386 9.71457 2.81248 9.95538 2.38383 10.384C1.95517 10.8127 1.71436 11.3941 1.71436 12.0003V13.1431M14.2858 13.1431V12.0003C14.2854 11.4938 14.1168 11.0019 13.8066 10.6016C13.4963 10.2013 13.0619 9.91546 12.5715 9.78885M10.2858 2.93171C10.7774 3.05759 11.2132 3.34354 11.5244 3.74446C11.8356 4.14538 12.0046 4.63847 12.0046 5.14599C12.0046 5.65352 11.8356 6.14661 11.5244 6.54753C11.2132 6.94845 10.7774 7.23439 10.2858 7.36028M8.5715 5.14314C8.5715 6.4055 7.54815 7.42885 6.28578 7.42885C5.02342 7.42885 4.00007 6.4055 4.00007 5.14314C4.00007 3.88077 5.02342 2.85742 6.28578 2.85742C7.54815 2.85742 8.5715 3.88077 8.5715 5.14314Z" stroke="#424952" stroke-linecap="round" stroke-linejoin="round"/>
</svg>
