<svg width="18" height="18" viewBox="0 0 18 18" fill="none" xmlns="http://www.w3.org/2000/svg">
<mask id="path-1-inside-1" fill="white">
<path d="M7.92866 3.77641L2.45657 13.0031C2.34375 13.2005 2.28405 13.4242 2.28342 13.6521C2.28279 13.8799 2.34125 14.104 2.45297 14.302C2.5647 14.5 2.7258 14.6649 2.92025 14.7805C3.1147 14.8961 3.33572 14.9582 3.56133 14.9607H14.5055C14.7311 14.9582 14.9521 14.8961 15.1466 14.7805C15.341 14.6649 15.5021 14.5 15.6139 14.302C15.7256 14.104 15.784 13.8799 15.7834 13.6521C15.7828 13.4242 15.7231 13.2005 15.6103 13.0031L10.1382 3.77641C10.023 3.58464 9.86083 3.42608 9.66732 3.31604C9.47381 3.206 9.25549 3.14819 9.03342 3.14819C8.81134 3.14819 8.59302 3.206 8.39951 3.31604C8.206 3.42608 8.04383 3.58464 7.92866 3.77641Z"/>
</mask>
<path d="M9.49999 7.39284C9.49999 7.1167 9.27613 6.89284 8.99999 6.89284C8.72384 6.89284 8.49999 7.1167 8.49999 7.39284H9.49999ZM8.49999 9.96427C8.49999 10.2404 8.72384 10.4643 8.99999 10.4643C9.27613 10.4643 9.49999 10.2404 9.49999 9.96427H8.49999ZM8.49999 7.39284V9.96427H9.49999V7.39284H8.49999ZM7.92866 3.77641L7.07137 3.26155L7.06855 3.2663L7.92866 3.77641ZM2.45657 13.0031L1.59646 12.493C1.59375 12.4976 1.59107 12.5022 1.58844 12.5068L2.45657 13.0031ZM3.56133 14.9607L3.55023 15.9607H3.56133V14.9607ZM14.5055 14.9607V15.9608L14.5166 15.9606L14.5055 14.9607ZM15.6103 13.0031L16.4784 12.5068C16.4758 12.5022 16.4731 12.4976 16.4704 12.493L15.6103 13.0031ZM10.1382 3.77641L10.9983 3.26629L10.9955 3.26155L10.1382 3.77641ZM9.03342 3.14819V2.14819V3.14819ZM7.06855 3.2663L1.59646 12.493L3.31668 13.5132L8.78877 4.28651L7.06855 3.2663ZM1.58844 12.5068C1.38945 12.8548 1.28454 13.2487 1.28343 13.6493L3.28342 13.6548C3.28357 13.5997 3.29805 13.5461 3.32471 13.4994L1.58844 12.5068ZM1.28343 13.6493C1.28232 14.0499 1.38504 14.4443 1.58208 14.7935L3.32386 13.8105C3.29745 13.7637 3.28327 13.71 3.28342 13.6548L1.28343 13.6493ZM1.58208 14.7935C1.77916 15.1427 2.06404 15.4349 2.40936 15.6401L3.43115 13.9209C3.38756 13.8949 3.35023 13.8572 3.32386 13.8105L1.58208 14.7935ZM2.40936 15.6401C2.75474 15.8454 3.1481 15.9562 3.55023 15.9606L3.57243 13.9608C3.52335 13.9602 3.47467 13.9467 3.43115 13.9209L2.40936 15.6401ZM3.56133 15.9607H14.5055V13.9607H3.56133V15.9607ZM14.5166 15.9606C14.9187 15.9562 15.3121 15.8454 15.6575 15.6401L14.6357 13.9209C14.5922 13.9467 14.5435 13.9602 14.4944 13.9608L14.5166 15.9606ZM15.6575 15.6401C16.0028 15.4349 16.2877 15.1427 16.4847 14.7935L14.743 13.8105C14.7166 13.8572 14.6793 13.8949 14.6357 13.9209L15.6575 15.6401ZM16.4847 14.7935C16.6818 14.4443 16.7845 14.0499 16.7834 13.6493L14.7834 13.6548C14.7836 13.71 14.7694 13.7637 14.743 13.8105L16.4847 14.7935ZM16.7834 13.6493C16.7823 13.2487 16.6774 12.8548 16.4784 12.5068L14.7421 13.4994C14.7688 13.5461 14.7833 13.5997 14.7834 13.6548L16.7834 13.6493ZM16.4704 12.493L10.9983 3.2663L9.27806 4.28651L14.7502 13.5132L16.4704 12.493ZM10.9955 3.26155C10.7922 2.92316 10.5054 2.64221 10.1616 2.44676L9.17301 4.18532C9.21631 4.20995 9.25378 4.24611 9.28089 4.29126L10.9955 3.26155ZM10.1616 2.44676C9.81785 2.25126 9.42924 2.14819 9.03342 2.14819V4.14819C9.08173 4.14819 9.12977 4.16074 9.17301 4.18532L10.1616 2.44676ZM9.03342 2.14819C8.63759 2.14819 8.24898 2.25126 7.9052 2.44676L8.89382 4.18532C8.93706 4.16074 8.9851 4.14819 9.03342 4.14819V2.14819ZM7.9052 2.44676C7.56148 2.64221 7.27461 2.92316 7.07138 3.26155L8.78594 4.29126C8.81306 4.24611 8.85052 4.20995 8.89382 4.18532L7.9052 2.44676Z" fill="#FFB527" mask="url(#path-1-inside-1)"/>
<mask id="path-3-inside-2" fill="white">
<path d="M9.5625 12.0938C9.5625 12.4044 9.31066 12.6562 9 12.6562C8.68934 12.6562 8.4375 12.4044 8.4375 12.0938C8.4375 11.7831 8.68934 11.5312 9 11.5312C9.31066 11.5312 9.5625 11.7831 9.5625 12.0938Z"/>
</mask>
<path d="M9.5625 12.0938C9.5625 12.4044 9.31066 12.6562 9 12.6562C8.68934 12.6562 8.4375 12.4044 8.4375 12.0938C8.4375 11.7831 8.68934 11.5312 9 11.5312C9.31066 11.5312 9.5625 11.7831 9.5625 12.0938Z" fill="#FFB527"/>
<path d="M8.5625 12.0938C8.5625 11.8521 8.75838 11.6563 9 11.6563V13.6562C9.86294 13.6562 10.5625 12.9567 10.5625 12.0938H8.5625ZM9 11.6563C9.24162 11.6563 9.4375 11.8521 9.4375 12.0938H7.4375C7.4375 12.9567 8.13706 13.6562 9 13.6562V11.6563ZM9.4375 12.0938C9.4375 12.3354 9.24162 12.5312 9 12.5312V10.5312C8.13706 10.5312 7.4375 11.2308 7.4375 12.0938H9.4375ZM9 12.5312C8.75838 12.5312 8.5625 12.3354 8.5625 12.0938H10.5625C10.5625 11.2308 9.86294 10.5312 9 10.5312V12.5312Z" fill="#FFB527" mask="url(#path-3-inside-2)"/>
</svg>
