<svg width="18" height="18" viewBox="0 0 18 18" fill="none" xmlns="http://www.w3.org/2000/svg">
<mask id="path-1-inside-1" fill="white">
<path d="M9.00002 2.57145C5.44961 2.57145 2.57145 5.44961 2.57145 9.00002C2.57145 12.5504 5.44961 15.4286 9.00002 15.4286C12.5504 15.4286 15.4286 12.5504 15.4286 9.00002C15.4286 5.44961 12.5504 2.57145 9.00002 2.57145Z"/>
</mask>
<path d="M8.50002 11.5714C8.50002 11.8476 8.72387 12.0714 9.00002 12.0714C9.27616 12.0714 9.50002 11.8476 9.50002 11.5714H8.50002ZM9.50002 9.00002C9.50002 8.72387 9.27616 8.50002 9.00002 8.50002C8.72387 8.50002 8.50002 8.72387 8.50002 9.00002H9.50002ZM9.50002 11.5714V9.00002H8.50002V11.5714H9.50002ZM3.57145 9.00002C3.57145 6.0019 6.0019 3.57145 9.00002 3.57145V1.57145C4.89733 1.57145 1.57145 4.89733 1.57145 9.00002H3.57145ZM9.00002 3.57145C11.9981 3.57145 14.4286 6.0019 14.4286 9.00002H16.4286C16.4286 4.89733 13.1027 1.57145 9.00002 1.57145V3.57145ZM14.4286 9.00002C14.4286 11.9981 11.9981 14.4286 9.00002 14.4286V16.4286C13.1027 16.4286 16.4286 13.1027 16.4286 9.00002H14.4286ZM9.00002 14.4286C6.0019 14.4286 3.57145 11.9981 3.57145 9.00002H1.57145C1.57145 13.1027 4.89733 16.4286 9.00002 16.4286V14.4286Z" fill="#A27FB1" mask="url(#path-1-inside-1)"/>
<mask id="path-3-inside-2" fill="white">
<path d="M8.35717 6.42855C8.35717 6.07351 8.64499 5.7857 9.00003 5.7857C9.35507 5.7857 9.64288 6.07351 9.64288 6.42855C9.64288 6.78359 9.35507 7.07141 9.00003 7.07141C8.64499 7.07141 8.35717 6.78359 8.35717 6.42855Z"/>
</mask>
<path d="M8.35717 6.42855C8.35717 6.07351 8.64499 5.7857 9.00003 5.7857C9.35507 5.7857 9.64288 6.07351 9.64288 6.42855C9.64288 6.78359 9.35507 7.07141 9.00003 7.07141C8.64499 7.07141 8.35717 6.78359 8.35717 6.42855Z" fill="#A27FB1"/>
<path d="M9.35717 6.42855C9.35717 6.6258 9.19727 6.7857 9.00003 6.7857V4.7857C8.0927 4.7857 7.35717 5.52123 7.35717 6.42855H9.35717ZM9.00003 6.7857C8.80278 6.7857 8.64288 6.6258 8.64288 6.42855H10.6429C10.6429 5.52123 9.90735 4.7857 9.00003 4.7857V6.7857ZM8.64288 6.42855C8.64288 6.23131 8.80278 6.07141 9.00003 6.07141V8.07141C9.90735 8.07141 10.6429 7.33588 10.6429 6.42855H8.64288ZM9.00003 6.07141C9.19727 6.07141 9.35717 6.23131 9.35717 6.42855H7.35717C7.35717 7.33588 8.0927 8.07141 9.00003 8.07141V6.07141Z" fill="#A27FB1" mask="url(#path-3-inside-2)"/>
</svg>
