<svg width="25" height="26" viewBox="0 0 25 26" fill="none" xmlns="http://www.w3.org/2000/svg">
<mask id="path-1-inside-1" fill="white">
<path d="M12.5 4.07141C7.56887 4.07141 3.57141 8.06887 3.57141 13C3.57141 17.9311 7.56887 21.9286 12.5 21.9286C17.4311 21.9286 21.4286 17.9311 21.4286 13C21.4286 8.06887 17.4311 4.07141 12.5 4.07141Z"/>
</mask>
<path d="M12 16.5714C12 16.8476 12.2238 17.0714 12.5 17.0714C12.7761 17.0714 13 16.8476 13 16.5714H12ZM13 13C13 12.7238 12.7761 12.5 12.5 12.5C12.2238 12.5 12 12.7238 12 13H13ZM13 16.5714L13 13H12L12 16.5714H13ZM4.57141 13C4.57141 8.62116 8.12116 5.07141 12.5 5.07141V3.07141C7.01659 3.07141 2.57141 7.51659 2.57141 13H4.57141ZM12.5 5.07141C16.8788 5.07141 20.4286 8.62116 20.4286 13H22.4286C22.4286 7.51659 17.9834 3.07141 12.5 3.07141V5.07141ZM20.4286 13C20.4286 17.3788 16.8788 20.9286 12.5 20.9286V22.9286C17.9834 22.9286 22.4286 18.4834 22.4286 13H20.4286ZM12.5 20.9286C8.12116 20.9286 4.57141 17.3788 4.57141 13H2.57141C2.57141 18.4834 7.01659 22.9286 12.5 22.9286V20.9286Z" fill="#7B558D" mask="url(#path-1-inside-1)"/>
<mask id="path-3-inside-2" fill="white">
<path d="M11.6071 9.42858C11.6071 8.93547 12.0069 8.53573 12.5 8.53573C12.9931 8.53573 13.3929 8.93547 13.3929 9.42858C13.3929 9.9217 12.9931 10.3214 12.5 10.3214C12.0069 10.3214 11.6071 9.9217 11.6071 9.42858Z"/>
</mask>
<path d="M11.6071 9.42858C11.6071 8.93547 12.0069 8.53573 12.5 8.53573C12.9931 8.53573 13.3929 8.93547 13.3929 9.42858C13.3929 9.9217 12.9931 10.3214 12.5 10.3214C12.0069 10.3214 11.6071 9.9217 11.6071 9.42858Z" fill="#7B558D"/>
<path d="M12.6071 9.42858C12.6071 9.48776 12.5592 9.53573 12.5 9.53573V7.53573C11.4546 7.53573 10.6071 8.38319 10.6071 9.42858H12.6071ZM12.5 9.53573C12.4408 9.53573 12.3929 9.48776 12.3929 9.42858H14.3929C14.3929 8.38319 13.5454 7.53573 12.5 7.53573V9.53573ZM12.3929 9.42858C12.3929 9.36941 12.4408 9.32144 12.5 9.32144V11.3214C13.5454 11.3214 14.3929 10.474 14.3929 9.42858H12.3929ZM12.5 9.32144C12.5592 9.32144 12.6071 9.36941 12.6071 9.42858H10.6071C10.6071 10.474 11.4546 11.3214 12.5 11.3214V9.32144Z" fill="#7B558D" mask="url(#path-3-inside-2)"/>
</svg>
