<svg width="18" height="19" viewBox="0 0 18 19" fill="none" xmlns="http://www.w3.org/2000/svg">
<ellipse cx="8.74205" cy="9.49986" rx="6.42857" ry="6.42857" fill="#A27FB1"/>
<path d="M9.20343 10.5419C9.13237 9.9506 9.52097 9.55953 9.91599 9.162C10.2904 8.78519 10.6706 8.40257 10.6706 7.83814C10.6706 6.79258 9.85859 6.28613 8.75127 6.28613C7.94847 6.28613 7.29331 6.62104 6.81348 7.10298L7.56091 7.70744C7.8562 7.43788 8.17916 7.25001 8.58518 7.25001C9.06501 7.25001 9.36952 7.5114 9.36952 7.91982C9.36952 8.24611 9.09794 8.52714 8.79672 8.83883C8.37402 9.27622 7.89298 9.77398 8.02229 10.5419H9.20343Z" fill="white"/>
<path d="M8.61225 12.7147C9.10132 12.7147 9.46119 12.3716 9.46119 11.9305C9.46119 11.4894 9.10132 11.1464 8.61225 11.1464C8.13242 11.1464 7.77254 11.4894 7.77254 11.9305C7.77254 12.3716 8.13242 12.7147 8.61225 12.7147Z" fill="white"/>
</svg>
