<svg width="22" height="22" viewBox="0 0 22 22" fill="none" xmlns="http://www.w3.org/2000/svg">
<circle cx="10.6853" cy="10.9997" r="7.85714" fill="#A27FB1"/>
<path d="M11.2492 12.2728C11.1623 11.5501 11.6373 11.0721 12.1201 10.5862C12.5777 10.1257 13.0424 9.65805 13.0424 8.96819C13.0424 7.69028 12.0499 7.07129 10.6965 7.07129C9.71534 7.07129 8.91459 7.48062 8.32812 8.06966L9.24166 8.80845C9.60256 8.47899 9.9973 8.24936 10.4935 8.24936C11.08 8.24936 11.4522 8.56884 11.4522 9.06802C11.4522 9.46682 11.1202 9.8103 10.7521 10.1912C10.2355 10.7258 9.64752 11.3342 9.80557 12.2728H11.2492Z" fill="white"/>
<path d="M10.5266 14.9284C11.1244 14.9284 11.5642 14.5091 11.5642 13.97C11.5642 13.4309 11.1244 13.0116 10.5266 13.0116C9.94016 13.0116 9.50031 13.4309 9.50031 13.97C9.50031 14.5091 9.94016 14.9284 10.5266 14.9284Z" fill="white"/>
</svg>
