<svg width="25" height="26" viewBox="0 0 25 26" fill="none" xmlns="http://www.w3.org/2000/svg">
<mask id="path-1-inside-1" fill="white">
<path d="M11.012 5.74502L3.41191 18.5599C3.25521 18.834 3.1723 19.1447 3.17142 19.4612C3.17055 19.7777 3.25173 20.0889 3.40691 20.3639C3.56208 20.6388 3.78584 20.868 4.05591 21.0285C4.32598 21.189 4.63295 21.2753 4.94629 21.2787H20.1465C20.4599 21.2753 20.7669 21.189 21.0369 21.0285C21.307 20.868 21.5307 20.6388 21.6859 20.3639C21.8411 20.0889 21.9223 19.7777 21.9214 19.4612C21.9205 19.1447 21.8376 18.834 21.6809 18.5599L14.0808 5.74502C13.9208 5.47867 13.6956 5.25845 13.4268 5.10562C13.1581 4.95279 12.8549 4.8725 12.5464 4.8725C12.238 4.8725 11.9348 4.95279 11.666 5.10562C11.3972 5.25845 11.172 5.47867 11.012 5.74502Z"/>
</mask>
<path d="M13 10.7678C13 10.4917 12.7761 10.2678 12.5 10.2678C12.2238 10.2678 12 10.4917 12 10.7678H13ZM12 14.3393C12 14.6154 12.2238 14.8393 12.5 14.8393C12.7761 14.8393 13 14.6154 13 14.3393H12ZM12 10.7678V14.3393H13V10.7678H12ZM11.012 5.74502L10.1547 5.23016L10.1519 5.23491L11.012 5.74502ZM3.41191 18.5599L2.5518 18.0498C2.54909 18.0544 2.54641 18.0589 2.54378 18.0636L3.41191 18.5599ZM4.05591 21.0285L3.54501 21.8881L4.05591 21.0285ZM4.94629 21.2787L4.93519 22.2787H4.94629V21.2787ZM20.1465 21.2787V22.2788L20.1576 22.2787L20.1465 21.2787ZM21.0369 21.0285L21.5478 21.8881L21.0369 21.0285ZM21.6809 18.5599L22.5491 18.0636C22.5464 18.0589 22.5437 18.0544 22.541 18.0498L21.6809 18.5599ZM14.0808 5.74502L14.9409 5.2349L14.9381 5.23016L14.0808 5.74502ZM12.5464 4.8725V3.8725V4.8725ZM10.1519 5.23491L2.5518 18.0498L4.27202 19.07L11.8721 6.25512L10.1519 5.23491ZM2.54378 18.0636C2.30091 18.4884 2.17278 18.9692 2.17143 19.4584L4.17142 19.464C4.17182 19.3202 4.20952 19.1796 4.28005 19.0562L2.54378 18.0636ZM2.17143 19.4584C2.17007 19.9476 2.29553 20.4292 2.53602 20.8554L4.2778 19.8724C4.20794 19.7486 4.17102 19.6078 4.17142 19.464L2.17143 19.4584ZM2.53602 20.8554C2.77655 21.2816 3.12408 21.638 3.54501 21.8881L4.5668 20.1688C4.44759 20.098 4.34762 19.9961 4.2778 19.8724L2.53602 20.8554ZM3.54501 21.8881C3.96602 22.1383 4.44533 22.2732 4.93519 22.2787L4.95739 20.2788C4.82058 20.2773 4.68594 20.2396 4.5668 20.1688L3.54501 21.8881ZM4.94629 22.2787H20.1465V20.2787H4.94629V22.2787ZM20.1576 22.2787C20.6475 22.2732 21.1268 22.1383 21.5478 21.8881L20.526 20.1688C20.4069 20.2396 20.2723 20.2773 20.1354 20.2788L20.1576 22.2787ZM21.5478 21.8881C21.9688 21.638 22.3163 21.2816 22.5568 20.8554L20.815 19.8724C20.7452 19.9961 20.6452 20.098 20.526 20.1688L21.5478 21.8881ZM22.5568 20.8554C22.7973 20.4292 22.9228 19.9476 22.9214 19.4584L20.9214 19.464C20.9218 19.6078 20.8849 19.7486 20.815 19.8724L22.5568 20.8554ZM22.9214 19.4584C22.92 18.9692 22.7919 18.4884 22.5491 18.0636L20.8128 19.0562C20.8833 19.1796 20.921 19.3202 20.9214 19.464L22.9214 19.4584ZM22.541 18.0498L14.9409 5.23491L13.2207 6.25512L20.8208 19.07L22.541 18.0498ZM14.9381 5.23016C14.6901 4.81719 14.3401 4.47458 13.9212 4.23634L12.9325 5.9749C13.0511 6.04232 13.1516 6.14014 13.2235 6.25987L14.9381 5.23016ZM13.9212 4.23634C13.5021 3.99805 13.0286 3.8725 12.5464 3.8725V5.8725C12.6811 5.8725 12.814 5.90752 12.9325 5.9749L13.9212 4.23634ZM12.5464 3.8725C12.0642 3.8725 11.5907 3.99805 11.1717 4.23634L12.1603 5.9749C12.2788 5.90752 12.4117 5.8725 12.5464 5.8725V3.8725ZM11.1717 4.23634C10.7527 4.47458 10.4028 4.81719 10.1548 5.23016L11.8693 6.25987C11.9412 6.14014 12.0417 6.04232 12.1603 5.9749L11.1717 4.23634Z" fill="#FFB527" mask="url(#path-1-inside-1)"/>
<mask id="path-3-inside-2" fill="white">
<path d="M13.2813 17.2969C13.2813 17.7283 12.9315 18.0781 12.5 18.0781C12.0685 18.0781 11.7188 17.7283 11.7188 17.2969C11.7188 16.8654 12.0685 16.5156 12.5 16.5156C12.9315 16.5156 13.2813 16.8654 13.2813 17.2969Z"/>
</mask>
<path d="M13.2813 17.2969C13.2813 17.7283 12.9315 18.0781 12.5 18.0781C12.0685 18.0781 11.7188 17.7283 11.7188 17.2969C11.7188 16.8654 12.0685 16.5156 12.5 16.5156C12.9315 16.5156 13.2813 16.8654 13.2813 17.2969Z" fill="#FFB527"/>
<path d="M12.2813 17.2969C12.2813 17.1761 12.3792 17.0781 12.5 17.0781V19.0781C13.4838 19.0781 14.2813 18.2806 14.2813 17.2969H12.2813ZM12.5 17.0781C12.6208 17.0781 12.7188 17.1761 12.7188 17.2969H10.7188C10.7188 18.2806 11.5162 19.0781 12.5 19.0781V17.0781ZM12.7188 17.2969C12.7188 17.4177 12.6208 17.5156 12.5 17.5156V15.5156C11.5162 15.5156 10.7188 16.3131 10.7188 17.2969H12.7188ZM12.5 17.5156C12.3792 17.5156 12.2813 17.4177 12.2813 17.2969H14.2813C14.2813 16.3131 13.4838 15.5156 12.5 15.5156V17.5156Z" fill="#FFB527" mask="url(#path-3-inside-2)"/>
</svg>
