<svg width="22" height="22" viewBox="0 0 22 22" fill="none" xmlns="http://www.w3.org/2000/svg">
<path d="M12.9 8.16422C13.0327 9.09275 12.1705 9.88862 10.9767 9.88862C9.78285 9.88862 8.92066 9.05958 8.98698 8.16422C9.08646 7.33519 9.94866 6.73828 10.9103 6.73828C11.9052 6.73828 12.8005 7.36835 12.9 8.16422Z" fill="#CCCCCC"/>
<path d="M7.23328 8.29248C7.28156 8.63046 6.96772 8.92016 6.53317 8.92016C6.09862 8.92016 5.78478 8.61839 5.80892 8.29248C5.84513 7.99071 6.15897 7.77344 6.50903 7.77344C6.87115 7.77344 7.19706 8.00278 7.23328 8.29248Z" fill="#CCCCCC"/>
<path d="M16.0848 8.29248C16.1331 8.63046 15.8193 8.92016 15.3847 8.92016C14.9502 8.92016 14.6363 8.61839 14.6605 8.29248C14.6967 7.99071 15.0105 7.77344 15.3606 7.77344C15.7227 7.77344 16.0486 8.00278 16.0848 8.29248Z" fill="#CCCCCC"/>
<path d="M3.58171 13.9449H18.4049M3.58172 16.5213H18.4049M18.8361 10.917C18.9024 11.0828 18.8029 11.2154 18.6371 11.2154H3.38285C3.18388 11.2154 3.11756 11.0828 3.15072 10.917L5.04092 5.77697C5.10724 5.61116 5.30622 5.47852 5.47202 5.47852H16.3158C16.4816 5.47852 16.7138 5.61116 16.7801 5.77697L18.8361 10.917Z" stroke="#424952" stroke-miterlimit="10" stroke-linecap="round" stroke-linejoin="round"/>
</svg>
