<svg width="16" height="16" viewBox="0 0 16 16" fill="none" xmlns="http://www.w3.org/2000/svg">
<path d="M3.43719 5.12738C3.34197 3.79257 4.07203 2.9027 4.44896 2.62461C5.04412 2.08831 5.57977 2.26707 5.87735 2.62461C6.17492 2.98215 6.88911 3.8164 7.18669 4.23353C7.48427 4.65066 7.48427 5.12738 7.18669 5.48491C6.94863 5.77094 6.53202 6.12054 6.35347 6.25958C6.4725 6.67671 6.86531 7.68973 7.48427 8.4048C8.10324 9.11988 9.0912 9.81509 9.50781 10.0733C9.56733 10.0137 9.79349 9.81112 10.222 9.47742C10.7576 9.06029 11.2338 9.11988 11.5313 9.47742L12.7217 10.9076C13.0192 11.2651 13.5549 11.6822 12.6026 12.5761C11.6504 13.4699 10.341 13.1124 9.38878 12.8144C8.43653 12.5165 7.30572 11.6226 6.71057 11.0267C6.11541 10.4309 5.40122 9.5966 4.68703 8.58357C3.97284 7.57055 3.55622 6.79589 3.43719 5.12738Z" stroke="#555555"/>
</svg>
