<svg width="18" height="18" viewBox="0 0 18 18" fill="none" xmlns="http://www.w3.org/2000/svg">
<path d="M6.42871 5.14258H14.7859M6.42871 8.99972H14.7859M6.42871 12.8569H14.7859" stroke="#555555" stroke-linecap="round" stroke-linejoin="round"/>
<path d="M3.357 5.14286C3.357 5.22176 3.29304 5.28571 3.21415 5.28571C3.13525 5.28571 3.07129 5.22175 3.07129 5.14286C3.07129 5.06396 3.13525 5 3.21415 5C3.29304 5 3.357 5.06396 3.357 5.14286ZM3.357 9C3.357 9.0789 3.29304 9.14286 3.21415 9.14286C3.13525 9.14286 3.07129 9.0789 3.07129 9C3.07129 8.9211 3.13525 8.85714 3.21415 8.85714C3.29304 8.85714 3.357 8.9211 3.357 9ZM3.357 12.8571C3.357 12.936 3.29304 13 3.21415 13C3.13525 13 3.07129 12.936 3.07129 12.8571C3.07129 12.7782 3.13525 12.7143 3.21415 12.7143C3.29304 12.7143 3.357 12.7782 3.357 12.8571Z" stroke="#555555"/>
</svg>
