<svg width="16" height="16" viewBox="0 0 16 16" fill="none" xmlns="http://www.w3.org/2000/svg">
<path d="M4.57157 8.28613C4.00014 7.42899 3.53242 6.46218 3.43719 5.12738C3.34196 3.79257 4.07203 2.9027 4.44896 2.62461C5.04411 2.08831 5.57976 2.26707 5.87734 2.62461C6.17492 2.98215 6.88911 3.8164 7.18669 4.23353C7.48427 4.65066 7.48427 5.12738 7.18669 5.48491C6.94863 5.77094 6.53202 6.12054 6.35347 6.25958C6.39841 6.41707 6.40659 6.48215 6.50116 6.7009M7.71442 8.57185C8.33339 9.28692 9.0912 9.81509 9.50781 10.0733C9.56732 10.0137 9.79348 9.81112 10.222 9.47742C10.7576 9.06029 11.2338 9.11988 11.5313 9.47742C11.8289 9.83495 12.4241 10.55 12.7217 10.9076C13.0192 11.2651 13.5549 11.6822 12.6026 12.5761C11.6504 13.4699 10.341 13.1124 9.38878 12.8144C8.43652 12.5165 7.30572 11.6226 6.71056 11.0267C6.47329 10.7892 6.2171 10.5137 5.94954 10.2042" stroke="#F94B50" stroke-linecap="round"/>
<path d="M13.7142 2.28613L2.28564 13.7147" stroke="#F94B50" stroke-linecap="round"/>
</svg>
