<svg width="15" height="16" viewBox="0 0 15 16" fill="none" xmlns="http://www.w3.org/2000/svg">
<path d="M0.323425 1.77884L1 5.5L5 2L1.67869 0.671474C0.948693 0.379477 0.182781 1.00529 0.323425 1.77884Z" fill="#C2A5CF"/>
<path d="M14.6766 1.77884L14 5.5L10 2L13.3213 0.671474C14.0513 0.379477 14.8172 1.00529 14.6766 1.77884Z" fill="#C2A5CF"/>
<circle cx="7.5" cy="8.5" r="7.5" fill="#7B558D"/>
<path d="M6.29254 8.90071C5.59751 10.1045 4.05819 10.517 2.85436 9.82197C1.65054 9.12694 1.23808 7.58762 1.93311 6.38379C1.93311 6.38379 2.90899 6.94724 4.11281 7.64227C5.31664 8.3373 6.29254 8.90071 6.29254 8.90071Z" fill="white"/>
<path d="M12.7758 6.61206C13.4371 7.75747 13.0446 9.22209 11.8992 9.88338C10.7538 10.5447 9.28923 10.1522 8.62793 9.00684C8.62793 9.00684 9.55647 8.47076 10.7019 7.80947C11.8473 7.14817 12.7758 6.61206 12.7758 6.61206Z" fill="white"/>
<line x1="4.5" y1="12.5" x2="10.5" y2="12.5" stroke="white" stroke-linecap="round"/>
<path d="M9.25 14.3L8.5 13H10L9.25 14.3Z" fill="#DECAE8"/>
</svg>
