<svg width="24" height="25" viewBox="0 0 24 25" fill="none" xmlns="http://www.w3.org/2000/svg">
<path d="M12.0001 4.5353C10.4088 4.5353 8.88272 5.16744 7.7575 6.29265C6.63228 7.41787 6.00014 8.944 6.00014 10.5353V14.821C6.00014 15.503 5.72922 16.157 5.24699 16.6393C4.76475 17.1215 4.1107 17.3924 3.42871 17.3924H20.5716C19.8896 17.3924 19.2355 17.1215 18.7533 16.6393C18.2711 16.157 18.0001 15.503 18.0001 14.821V10.5353C18.0001 8.944 17.368 7.41787 16.2428 6.29265C15.1176 5.16744 13.5914 4.5353 12.0001 4.5353ZM12.0001 4.5353V1.96387M13.483 20.821C13.3323 21.0808 13.116 21.2964 12.8558 21.4463C12.5955 21.5962 12.3005 21.6751 12.0001 21.6751C11.6998 21.6751 11.4048 21.5962 11.1445 21.4463C10.8843 21.2964 10.668 21.0808 10.5173 20.821" stroke="#424952" stroke-linecap="round" stroke-linejoin="round"/>
</svg>
