<svg width="27" height="27" viewBox="0 0 27 27" fill="none" xmlns="http://www.w3.org/2000/svg">
<path d="M4.85449 6.74219C4.85449 4.25691 6.86921 2.24219 9.35449 2.24219H22.1448V23.0164H8.35449C6.42149 23.0164 4.85449 21.4494 4.85449 19.5164V6.74219Z" fill="white" stroke="#A5B3C2"/>
<path d="M4.85449 6.74219C4.85449 4.34898 6.7227 2.39211 9.0803 2.2504V23.0164H8.35449C6.4215 23.0164 4.85449 21.4494 4.85449 19.5164V6.74219Z" fill="#FFF5F8" stroke="#A5B3C2"/>
<path d="M12.1934 5.22656H19.1611V7.83947H12.1934V5.22656Z" fill="#8996A3"/>
<path d="M4.85449 20.4683C4.85449 19.0609 5.99544 17.9199 7.40288 17.9199H22.1448V23.0167H7.40288C5.99544 23.0167 4.85449 21.8757 4.85449 20.4683Z" fill="white" stroke="#A5B3C2"/>
<path d="M7.83887 20.0332H12.1937V25.259L10.0163 23.5171L7.83887 25.259V20.0332Z" fill="#7B558D"/>
</svg>
