<svg width="17" height="18" viewBox="0 0 17 18" fill="none" xmlns="http://www.w3.org/2000/svg">
<path d="M13.5716 13.2494C13.5716 13.5715 13.4436 13.8803 13.2159 14.1081C12.9882 14.3358 12.6793 14.4637 12.3573 14.4637H2.643C2.32095 14.4637 2.01209 14.3358 1.78437 14.1081C1.55664 13.8803 1.42871 13.5715 1.42871 13.2494V4.74944C1.42871 4.42739 1.55664 4.11853 1.78437 3.89081C2.01209 3.66309 2.32095 3.53516 2.643 3.53516H5.67871L6.893 5.35658H12.3573C12.6793 5.35658 12.9882 5.48452 13.2159 5.71224C13.4436 5.93996 13.5716 6.24882 13.5716 6.57087V13.2494Z" fill="#76B5FF"/>
<path d="M13.573 13.2503C13.573 13.5723 13.4451 13.8812 13.2174 14.1089C12.9897 14.3366 12.6808 14.4646 12.3587 14.4646H2.64446C2.32241 14.4646 2.01355 14.3366 1.78583 14.1089C1.55811 13.8812 1.43018 13.5723 1.43018 13.2503V8.00035L3.00146 8.00049H4.50146L9.00146 8.00035L12.0015 5.35742H12.3587C12.6808 5.35742 12.9897 5.48536 13.2174 5.71308C13.4451 5.9408 13.573 6.24966 13.573 6.57171V13.2503Z" fill="#3784DD"/>
</svg>
