<svg width="18" height="18" viewBox="0 0 18 18" fill="none" xmlns="http://www.w3.org/2000/svg">
<path d="M4.49998 10.9286H3.85713C3.51613 10.9286 3.18911 10.7931 2.94799 10.552C2.70687 10.3109 2.57141 9.98386 2.57141 9.64287V3.85716C2.57141 3.51616 2.70687 3.18914 2.94799 2.94802C3.18911 2.7069 3.51613 2.57144 3.85713 2.57144H9.64284C9.98383 2.57144 10.3109 2.7069 10.552 2.94802C10.7931 3.18914 10.9286 3.51616 10.9286 3.85716V4.50001M8.35713 7.07144H14.1428C14.8529 7.07144 15.4286 7.64708 15.4286 8.35716V14.1429C15.4286 14.853 14.8529 15.4286 14.1428 15.4286H8.35713C7.64705 15.4286 7.07141 14.853 7.07141 14.1429V8.35716C7.07141 7.64708 7.64705 7.07144 8.35713 7.07144Z" stroke="#56606B" stroke-linecap="round" stroke-linejoin="round"/>
</svg>
