<svg width="20" height="20" viewBox="0 0 20 20" fill="none" xmlns="http://www.w3.org/2000/svg">
<mask id="path-1-inside-1" fill="white">
<path d="M13.5714 2.85742H6.42857C5.63959 2.85742 5 3.49701 5 4.28599V15.7146C5 16.5035 5.63959 17.1431 6.42857 17.1431H13.5714C14.3604 17.1431 15 16.5035 15 15.7146V4.28599C15 3.49701 14.3604 2.85742 13.5714 2.85742Z"/>
</mask>
<path d="M6.42857 3.85742H13.5714V1.85742H6.42857V3.85742ZM13.5714 3.85742C13.8081 3.85742 14 4.0493 14 4.28599H16C16 2.94473 14.9127 1.85742 13.5714 1.85742V3.85742ZM14 4.28599V15.7146H16V4.28599H14ZM14 15.7146C14 15.9513 13.8081 16.1431 13.5714 16.1431V18.1431C14.9127 18.1431 16 17.0558 16 15.7146H14ZM13.5714 16.1431H6.42857V18.1431H13.5714V16.1431ZM6.42857 16.1431C6.19188 16.1431 6 15.9513 6 15.7146H4C4 17.0558 5.08731 18.1431 6.42857 18.1431V16.1431ZM6 15.7146V4.28599H4V15.7146H6ZM6 4.28599C6 4.0493 6.19188 3.85742 6.42857 3.85742V1.85742C5.08731 1.85742 4 2.94473 4 4.28599H6Z" fill="#6B7682" mask="url(#path-1-inside-1)"/>
<path d="M10.7142 14.2856C10.7142 14.6801 10.3944 14.9999 9.99993 14.9999C9.60544 14.9999 9.28564 14.6801 9.28564 14.2856C9.28564 13.8911 9.60544 13.5713 9.99993 13.5713C10.3944 13.5713 10.7142 13.8911 10.7142 14.2856Z" fill="#6B7682"/>
</svg>
