<svg width="20" height="20" viewBox="0 0 20 20" fill="none" xmlns="http://www.w3.org/2000/svg">
<path d="M17.1429 4.09831C17.1429 4.85497 14.9637 5.4603 12.27 5.4603C9.57633 5.4603 7.39716 4.85497 7.39716 4.09831C7.39716 3.34166 9.57633 2.73633 12.27 2.73633C14.9637 2.73633 17.1429 3.34166 17.1429 4.09831Z" stroke="#603973" stroke-miterlimit="10" stroke-linecap="round"/>
<path d="M17.143 6.51953C17.143 7.27619 14.9638 7.88152 12.2701 7.88152C11.7555 7.88152 11.2713 7.85125 10.787 7.82098C10.7265 7.82098 7.82092 7.45779 7.79065 7.42752" stroke="#603973" stroke-miterlimit="10" stroke-linecap="round"/>
<path d="M17.1429 9.15332C17.1429 9.87971 15.0848 10.485 12.5121 10.5153" stroke="#603973" stroke-miterlimit="10" stroke-linecap="round"/>
<path d="M17.1429 11.7861C17.1429 12.5125 15.115 13.0876 12.5726 13.1481" stroke="#603973" stroke-miterlimit="10" stroke-linecap="round"/>
<path d="M7.39716 4.52148V7.60865" stroke="#603973" stroke-miterlimit="10" stroke-linecap="round"/>
<path d="M17.1428 4.52148V11.7551" stroke="#603973" stroke-miterlimit="10" stroke-linecap="round"/>
<path d="M12.4516 12.452C12.4516 15.1154 10.3027 17.2643 7.63926 17.2643C5.00609 17.2643 2.85718 15.1154 2.85718 12.452C2.85718 9.78856 5.00609 7.63965 7.66953 7.63965C10.3027 7.66991 12.4516 9.81882 12.4516 12.452Z" stroke="#603973" stroke-miterlimit="10" stroke-linecap="round"/>
<mask id="path-8-inside-1" fill="white">
<path d="M7.39707 15.5689V14.8122C6.97334 14.8122 6.51935 14.6609 6.24695 14.4793L6.42855 13.9647C6.70094 14.1463 7.09441 14.2977 7.51813 14.2977C8.06293 14.2977 8.42612 13.995 8.42612 13.5713C8.42612 13.1476 8.12346 12.9054 7.57867 12.6633C6.79174 12.3606 6.33775 12.0277 6.33775 11.3618C6.33775 10.7262 6.79174 10.2723 7.48787 10.1512V9.39453H7.94186V10.1209C8.39586 10.1209 8.69852 10.242 8.91039 10.3933L8.72879 10.8776C8.57746 10.7868 8.27479 10.6355 7.79053 10.6355C7.21547 10.6355 7.00361 10.9684 7.00361 11.271C7.00361 11.6645 7.276 11.8461 7.94186 12.1185C8.72879 12.4514 9.12225 12.8146 9.12225 13.5108C9.12225 14.1161 8.69852 14.6609 7.94186 14.7819V15.5689H7.39707Z"/>
</mask>
<path d="M7.39707 15.5689H6.39707V16.5689H7.39707V15.5689ZM7.39707 14.8122H8.39707V13.8122H7.39707V14.8122ZM6.24695 14.4793L5.30396 14.1465L5.0451 14.8799L5.69225 15.3113L6.24695 14.4793ZM6.42855 13.9647L6.98325 13.1327L5.91347 12.4195L5.48556 13.6319L6.42855 13.9647ZM7.57867 12.6633L7.98481 11.7495L7.96148 11.7391L7.93765 11.7299L7.57867 12.6633ZM7.48787 10.1512L7.65921 11.1364L8.48787 10.9923V10.1512H7.48787ZM7.48787 9.39453V8.39453H6.48787V9.39453H7.48787ZM7.94186 9.39453H8.94186V8.39453H7.94186V9.39453ZM7.94186 10.1209H6.94186V11.1209H7.94186V10.1209ZM8.91039 10.3933L9.84672 10.7444L10.1162 10.0257L9.49162 9.57959L8.91039 10.3933ZM8.72879 10.8776L8.21429 11.7351L9.24363 12.3527L9.66512 11.2287L8.72879 10.8776ZM7.94186 12.1185L8.33153 11.1975L8.3205 11.193L7.94186 12.1185ZM7.94186 14.7819L7.78387 13.7945L6.94186 13.9292V14.7819H7.94186ZM7.94186 15.5689V16.5689H8.94186V15.5689H7.94186ZM8.39707 15.5689V14.8122H6.39707V15.5689H8.39707ZM7.39707 13.8122C7.2987 13.8122 7.17725 13.7936 7.05426 13.7565C6.92855 13.7186 6.84059 13.6732 6.80165 13.6472L5.69225 15.3113C6.12985 15.6031 6.77705 15.8122 7.39707 15.8122V13.8122ZM7.18994 14.8121L7.37154 14.2976L5.48556 13.6319L5.30396 14.1465L7.18994 14.8121ZM5.87385 14.7968C6.28456 15.0706 6.86795 15.2977 7.51813 15.2977V13.2977C7.32087 13.2977 7.11732 13.2221 6.98325 13.1327L5.87385 14.7968ZM7.51813 15.2977C7.96924 15.2977 8.43315 15.1722 8.80563 14.8706C9.19268 14.5573 9.42612 14.093 9.42612 13.5713H7.42612C7.42612 13.5317 7.43529 13.4805 7.4607 13.428C7.48583 13.376 7.51894 13.339 7.54723 13.3161C7.60191 13.2719 7.61182 13.2977 7.51813 13.2977V15.2977ZM9.42612 13.5713C9.42612 13.0769 9.23248 12.6608 8.9138 12.3421C8.63586 12.0641 8.28509 11.8829 7.98481 11.7495L7.17253 13.5771C7.28607 13.6276 7.36678 13.6692 7.42415 13.7039C7.4818 13.7387 7.50052 13.7572 7.49959 13.7563C7.49561 13.7523 7.4717 13.7265 7.45118 13.6786C7.43006 13.6294 7.42612 13.5884 7.42612 13.5713H9.42612ZM7.93765 11.7299C7.57365 11.5899 7.4195 11.489 7.35725 11.4289C7.33611 11.4085 7.3379 11.4043 7.34185 11.4137C7.34562 11.4226 7.33775 11.4118 7.33775 11.3618H5.33775C5.33775 11.9644 5.56029 12.4745 5.96898 12.8686C6.33045 13.2172 6.79676 13.434 7.21969 13.5966L7.93765 11.7299ZM7.33775 11.3618C7.33775 11.3236 7.34424 11.3025 7.34826 11.2924C7.35228 11.2823 7.35863 11.2712 7.37184 11.2575C7.39852 11.2298 7.47932 11.1677 7.65921 11.1364L7.31653 9.16598C6.26198 9.34938 5.33775 10.1271 5.33775 11.3618H7.33775ZM8.48787 10.1512V9.39453H6.48787V10.1512H8.48787ZM7.48787 10.3945H7.94186V8.39453H7.48787V10.3945ZM6.94186 9.39453V10.1209H8.94186V9.39453H6.94186ZM7.94186 11.1209C8.07897 11.1209 8.16752 11.139 8.22124 11.1557C8.27361 11.1719 8.3064 11.1908 8.32915 11.2071L9.49162 9.57959C9.09899 9.29914 8.59013 9.12092 7.94186 9.12092V11.1209ZM7.97406 10.0422L7.79246 10.5265L9.66512 11.2287L9.84672 10.7444L7.97406 10.0422ZM9.24328 10.0201C8.98313 9.864 8.5036 9.63545 7.79053 9.63545V11.6355C7.926 11.6355 8.0209 11.6562 8.08226 11.6757C8.14351 11.6951 8.18507 11.7175 8.21429 11.7351L9.24328 10.0201ZM7.79053 9.63545C7.30709 9.63545 6.83808 9.77974 6.48528 10.1218C6.13841 10.4582 6.00361 10.8905 6.00361 11.271H8.00361C8.00361 11.3489 7.97474 11.4634 7.87757 11.5576C7.77446 11.6576 7.69891 11.6355 7.79053 11.6355V9.63545ZM6.00361 11.271C6.00361 11.7692 6.20672 12.1887 6.57539 12.5021C6.86342 12.7469 7.23941 12.9116 7.56323 13.044L8.3205 11.193C8.16422 11.129 8.05358 11.0795 7.97281 11.0378C7.89043 10.9953 7.86676 10.9749 7.87069 10.9782C7.88067 10.9867 7.92526 11.0283 7.9619 11.1064C7.99902 11.1856 8.00361 11.2501 8.00361 11.271H6.00361ZM7.55222 13.0395C7.90181 13.1874 8.0339 13.2917 8.08258 13.346C8.09959 13.3649 8.10405 13.3752 8.10718 13.3839C8.11128 13.3954 8.12225 13.4317 8.12225 13.5108H10.1223C10.1223 12.9473 9.9525 12.4356 9.57172 12.0109C9.22694 11.6263 8.76884 11.3826 8.3315 11.1975L7.55222 13.0395ZM8.12225 13.5108C8.12225 13.576 8.10119 13.6264 8.06633 13.6659C8.03309 13.7035 7.95473 13.7672 7.78387 13.7945L8.09985 15.7694C9.31112 15.5756 10.1223 14.6377 10.1223 13.5108H8.12225ZM6.94186 14.7819V15.5689H8.94186V14.7819H6.94186ZM7.94186 14.5689H7.39707V16.5689H7.94186V14.5689Z" fill="#603973" mask="url(#path-8-inside-1)"/>
</svg>
