<svg width="20" height="20" viewBox="0 0 20 20" fill="none" xmlns="http://www.w3.org/2000/svg">
<path d="M3.57141 13.5717V9.28599C3.57141 7.58103 4.24871 5.9459 5.4543 4.74031C6.65989 3.53472 8.29502 2.85742 9.99998 2.85742C11.7049 2.85742 13.3401 3.53472 14.5457 4.74031C15.7513 5.9459 16.4286 7.58103 16.4286 9.28599V13.5717M15 14.6431C15.3789 14.6431 15.7422 14.4926 16.0101 14.2247C16.278 13.9568 16.4286 13.5934 16.4286 13.2146V9.64314H14.2857C13.9068 9.64314 13.5435 9.79365 13.2755 10.0616C13.0076 10.3295 12.8571 10.6928 12.8571 11.0717V13.2146C12.8571 13.5934 13.0076 13.9568 13.2755 14.2247C13.5435 14.4926 13.9068 14.6431 14.2857 14.6431H15ZM15 14.6431C15 14.6431 15 16.4288 14.2857 16.4288C13.5714 16.4288 11.4286 16.4288 11.4286 16.4288M11.4286 16.4288C11.4286 16.786 11.4286 17.1431 10.3571 17.1431C9.2857 17.1431 9.2857 16.7407 9.2857 16.4288C9.2857 16.117 9.2857 15.7146 10.3571 15.7146C11.4286 15.7146 11.4286 16.0717 11.4286 16.4288ZM3.57141 13.2146C3.57141 13.5934 3.72192 13.9568 3.98983 14.2247C4.25774 14.4926 4.6211 14.6431 4.99998 14.6431H5.71427C6.09315 14.6431 6.45651 14.4926 6.72442 14.2247C6.99233 13.9568 7.14284 13.5934 7.14284 13.2146V11.0717C7.14284 10.6928 6.99233 10.3295 6.72442 10.0616C6.45651 9.79365 6.09315 9.64314 5.71427 9.64314H3.57141V13.2146Z" stroke="#603973" stroke-linecap="round" stroke-linejoin="round"/>
</svg>
