<svg width="13" height="14" viewBox="0 0 13 14" fill="none" xmlns="http://www.w3.org/2000/svg">
<path d="M2.32818 5.1298C2.25081 4.04527 2.84398 3.32225 3.15024 3.0963C3.63381 2.66055 4.06902 2.8058 4.3108 3.0963C4.55259 3.3868 5.13287 4.06463 5.37465 4.40355C5.61643 4.74247 5.61643 5.1298 5.37465 5.4203C5.18122 5.6527 4.84273 5.93674 4.69766 6.04971C4.79437 6.38863 5.11352 7.21171 5.61643 7.79271C6.11934 8.37371 6.92206 8.93857 7.26056 9.14837C7.30891 9.09996 7.49267 8.93534 7.84084 8.66421C8.27605 8.32529 8.6629 8.37371 8.90468 8.66421L9.87181 9.82621C10.1136 10.1167 10.5488 10.4556 9.7751 11.1819C9.0014 11.9081 7.93755 11.6176 7.16384 11.3755C6.39014 11.1335 5.47136 10.4072 4.9878 9.92304C4.50423 9.43887 3.92395 8.76104 3.34367 7.93796C2.76339 7.11488 2.42489 6.48546 2.32818 5.1298Z" fill="#D63D77"/>
<path d="M10.2145 6.07129H7.89307M7.89307 6.07129V3.74986M7.89307 6.07129L11.1431 2.82129" stroke="#D63D77" stroke-linecap="round" stroke-linejoin="round"/>
</svg>
