<svg width="22" height="22" viewBox="0 0 22 22" fill="none" xmlns="http://www.w3.org/2000/svg">
<path d="M8.32061 12.1861L13.687 15.3133M13.6792 6.68615L8.32061 9.81329M18.0713 5.49972C18.0713 6.80153 17.016 7.85686 15.7142 7.85686C14.4124 7.85686 13.357 6.80153 13.357 5.49972C13.357 4.19791 14.4124 3.14258 15.7142 3.14258C17.016 3.14258 18.0713 4.19791 18.0713 5.49972ZM8.64275 10.9997C8.64275 12.3015 7.58742 13.3569 6.28561 13.3569C4.9838 13.3569 3.92847 12.3015 3.92847 10.9997C3.92847 9.69791 4.9838 8.64258 6.28561 8.64258C7.58742 8.64258 8.64275 9.69791 8.64275 10.9997ZM18.0713 16.4997C18.0713 17.8015 17.016 18.8569 15.7142 18.8569C14.4124 18.8569 13.357 17.8015 13.357 16.4997C13.357 15.1979 14.4124 14.1426 15.7142 14.1426C17.016 14.1426 18.0713 15.1979 18.0713 16.4997Z" stroke="#4C4C94" stroke-linecap="round" stroke-linejoin="round"/>
</svg>
