<svg width="12" height="12" viewBox="0 0 12 12" fill="none" xmlns="http://www.w3.org/2000/svg">
<path fill-rule="evenodd" clip-rule="evenodd" d="M6 11.3333C8.94552 11.3333 11.3333 8.94552 11.3333 6C11.3333 3.05449 8.94552 0.666672 6 0.666672C3.05449 0.666672 0.666672 3.05449 0.666672 6C0.666672 8.94552 3.05449 11.3333 6 11.3333Z" fill="#F94B50"/>
<path d="M5.3038 8.52548C5.3038 8.09767 5.61119 7.75328 6.0317 7.75328C6.45546 7.75328 6.77437 8.09329 6.77437 8.52548C6.77437 8.96321 6.45006 9.28292 6.0317 9.28292C5.6165 9.28292 5.3038 8.95889 5.3038 8.52548Z" fill="#F5F7FA"/>
<path d="M5.43982 2.76155H6.6398L6.60439 3.80626L6.47983 6.92011H5.59095L5.4663 3.80384L5.43982 2.76155Z" fill="#F5F7FA"/>
</svg>
