<svg width="64" height="64" viewBox="0 0 64 64" fill="none" xmlns="http://www.w3.org/2000/svg">
<path d="M33 32C33 31.4477 32.5523 31 32 31C31.4477 31 31 31.4477 31 32H33ZM31 42C31 42.5523 31.4477 43 32 43C32.5523 43 33 42.5523 33 42H31ZM31 32V42H33V32H31Z" fill="#555555"/>
<path d="M55.5 32C55.5 44.9787 44.9787 55.5 32 55.5C19.0213 55.5 8.5 44.9787 8.5 32C8.5 19.0213 19.0213 8.5 32 8.5C44.9787 8.5 55.5 19.0213 55.5 32Z" stroke="#555555"/>
<mask id="path-3-inside-1" fill="white">
<path d="M34 25C34 26.1046 33.1046 27 32 27C30.8954 27 30 26.1046 30 25C30 23.8954 30.8954 23 32 23C33.1046 23 34 23.8954 34 25Z"/>
</mask>
<path d="M34 25C34 26.1046 33.1046 27 32 27C30.8954 27 30 26.1046 30 25C30 23.8954 30.8954 23 32 23C33.1046 23 34 23.8954 34 25Z" fill="#555555"/>
<path d="M33 25C33 25.5523 32.5523 26 32 26V28C33.6569 28 35 26.6569 35 25H33ZM32 26C31.4477 26 31 25.5523 31 25H29C29 26.6569 30.3431 28 32 28V26ZM31 25C31 24.4477 31.4477 24 32 24V22C30.3431 22 29 23.3431 29 25H31ZM32 24C32.5523 24 33 24.4477 33 25H35C35 23.3431 33.6569 22 32 22V24Z" fill="#555555" mask="url(#path-3-inside-1)"/>
</svg>
