<svg width="18" height="18" viewBox="0 0 18 18" fill="none" xmlns="http://www.w3.org/2000/svg">
<mask id="path-1-inside-1" fill="white">
<path d="M9.00014 2.57157C5.44974 2.57157 2.57157 5.44974 2.57157 9.00014C2.57157 12.5505 5.44974 15.4287 9.00014 15.4287C12.5505 15.4287 15.4287 12.5505 15.4287 9.00014C15.4287 5.44974 12.5505 2.57157 9.00014 2.57157Z"/>
</mask>
<path d="M9.00014 2.57157C5.44974 2.57157 2.57157 5.44974 2.57157 9.00014C2.57157 12.5505 5.44974 15.4287 9.00014 15.4287C12.5505 15.4287 15.4287 12.5505 15.4287 9.00014C15.4287 5.44974 12.5505 2.57157 9.00014 2.57157Z" fill="#F92465"/>
<path d="M3.57157 9.00014C3.57157 6.00202 6.00202 3.57157 9.00014 3.57157L9.00014 1.57157C4.89745 1.57157 1.57157 4.89745 1.57157 9.00014L3.57157 9.00014ZM9.00014 3.57157C11.9983 3.57157 14.4287 6.00202 14.4287 9.00014L16.4287 9.00014C16.4287 4.89745 13.1028 1.57157 9.00014 1.57157L9.00014 3.57157ZM14.4287 9.00014C14.4287 11.9983 11.9983 14.4287 9.00014 14.4287L9.00014 16.4287C13.1028 16.4287 16.4287 13.1028 16.4287 9.00014L14.4287 9.00014ZM9.00014 14.4287C6.00202 14.4287 3.57157 11.9983 3.57157 9.00014L1.57157 9.00014C1.57157 13.1028 4.89745 16.4287 9.00014 16.4287L9.00014 14.4287Z" fill="#F92465" mask="url(#path-1-inside-1)"/>
<path d="M8.35686 6.42843C8.35686 6.07339 8.64468 5.78558 8.99972 5.78558C9.35476 5.78558 9.64258 6.07339 9.64258 6.42843C9.64258 6.78347 9.35476 7.07129 8.99972 7.07129C8.64468 7.07129 8.35686 6.78347 8.35686 6.42843Z" fill="white"/>
<path d="M8.60686 6.42843C8.60686 6.21146 8.78275 6.03558 8.99972 6.03558L8.99972 5.53558C8.50661 5.53558 8.10686 5.93532 8.10686 6.42843L8.60686 6.42843ZM8.99972 6.03558C9.21669 6.03558 9.39258 6.21146 9.39258 6.42843L9.89258 6.42843C9.89258 5.93532 9.49283 5.53558 8.99972 5.53558L8.99972 6.03558ZM9.39258 6.42843C9.39258 6.6454 9.21669 6.82129 8.99972 6.82129L8.99972 7.32129C9.49283 7.32129 9.89258 6.92154 9.89258 6.42843L9.39258 6.42843ZM8.99972 6.82129C8.78275 6.82129 8.60686 6.6454 8.60686 6.42843L8.10686 6.42843C8.10686 6.92154 8.50661 7.32129 8.99972 7.32129L8.99972 6.82129Z" fill="white"/>
<path d="M8.25 11.5713C8.25 11.9855 8.58579 12.3213 9 12.3213C9.41421 12.3213 9.75 11.9855 9.75 11.5713L8.25 11.5713ZM9.75 8.99986C9.75 8.58565 9.41421 8.24986 9 8.24986C8.58579 8.24986 8.25 8.58565 8.25 8.99986L9.75 8.99986ZM9.75 11.5713L9.75 8.99986L8.25 8.99986L8.25 11.5713L9.75 11.5713Z" fill="white"/>
</svg>
