<svg width="16" height="16" viewBox="0 0 16 16" fill="none" xmlns="http://www.w3.org/2000/svg">
<rect x="1" y="1" width="14" height="14" fill="white"/>
<path fill-rule="evenodd" clip-rule="evenodd" d="M16 2C16 0.89543 15.1046 0 14 0H2C0.89543 0 0 0.89543 0 2V14C0 15.1046 0.89543 16 2 16H14C15.1046 16 16 15.1046 16 14V2ZM2 1H14L14.1166 1.00673C14.614 1.06449 15 1.48716 15 2V14L14.9933 14.1166C14.9355 14.614 14.5128 15 14 15H2L1.88338 14.9933C1.38604 14.9355 1 14.5128 1 14V2L1.00673 1.88338C1.06449 1.38604 1.48716 1 2 1Z" fill="#A5B3C2"/>
<mask id="mask0" mask-type="alpha" maskUnits="userSpaceOnUse" x="0" y="0" width="16" height="16">
<path fill-rule="evenodd" clip-rule="evenodd" d="M16 2C16 0.89543 15.1046 0 14 0H2C0.89543 0 0 0.89543 0 2V14C0 15.1046 0.89543 16 2 16H14C15.1046 16 16 15.1046 16 14V2ZM2 1H14L14.1166 1.00673C14.614 1.06449 15 1.48716 15 2V14L14.9933 14.1166C14.9355 14.614 14.5128 15 14 15H2L1.88338 14.9933C1.38604 14.9355 1 14.5128 1 14V2L1.00673 1.88338C1.06449 1.38604 1.48716 1 2 1Z" fill="white"/>
</mask>
<g mask="url(#mask0)">
<rect x="-1" y="-1" width="18" height="18" rx="3" fill="#DAE3ED"/>
</g>
</svg>
