<svg width="64" height="64" viewBox="0 0 64 64" fill="none" xmlns="http://www.w3.org/2000/svg">
<mask id="path-1-inside-1" fill="white">
<path d="M28.1909 13.4273L8.73456 46.2334C8.33341 46.935 8.12116 47.7305 8.11891 48.5407C8.11667 49.351 8.32451 50.1477 8.72176 50.8516C9.119 51.5555 9.69181 52.142 10.3832 52.5529C11.0746 52.9638 11.8604 53.1847 12.6626 53.1936H51.5752C52.3774 53.1847 53.1632 52.9638 53.8546 52.5529C54.546 52.142 55.1188 51.5555 55.516 50.8516C55.9133 50.1477 56.1211 49.351 56.1189 48.5407C56.1166 47.7305 55.9044 46.935 55.5032 46.2334L36.0469 13.4273C35.6374 12.7454 35.0608 12.1817 34.3728 11.7904C33.6847 11.3992 32.9085 11.1936 32.1189 11.1936C31.3293 11.1936 30.553 11.3992 29.865 11.7904C29.177 12.1817 28.6004 12.7454 28.1909 13.4273Z"/>
</mask>
<path d="M28.1909 13.4273L27.3336 12.9124L27.3308 12.9172L28.1909 13.4273ZM8.73456 46.2334L7.87445 45.7233C7.87174 45.7278 7.86906 45.7324 7.86642 45.737L8.73456 46.2334ZM12.6626 53.1936L12.6515 54.1936H12.6626V53.1936ZM51.5752 53.1936V54.1937L51.5863 54.1936L51.5752 53.1936ZM55.5032 46.2334L56.3714 45.737C56.3687 45.7324 56.3661 45.7278 56.3633 45.7233L55.5032 46.2334ZM36.0469 13.4273L36.907 12.9172L36.9042 12.9124L36.0469 13.4273ZM32.1189 11.1936V10.1936V11.1936ZM27.3308 12.9172L7.87445 45.7233L9.59467 46.7435L29.051 13.9374L27.3308 12.9172ZM7.86642 45.737C7.37911 46.5894 7.12164 47.555 7.11892 48.538L9.11891 48.5435C9.12068 47.906 9.28772 47.2806 9.60269 46.7297L7.86642 45.737ZM7.11892 48.538C7.11619 49.5209 7.3683 50.488 7.85087 51.343L9.59264 50.3601C9.28071 49.8074 9.11714 49.181 9.11891 48.5435L7.11892 48.538ZM7.85087 51.343C8.33347 52.1982 9.03006 52.912 9.8723 53.4126L10.8941 51.6933C10.3536 51.3721 9.90454 50.9127 9.59264 50.3601L7.85087 51.343ZM9.8723 53.4126C10.7146 53.9132 11.6728 54.1827 12.6515 54.1936L12.6737 52.1937C12.0481 52.1868 11.4345 52.0145 10.8941 51.6933L9.8723 53.4126ZM12.6626 54.1936H51.5752V52.1936H12.6626V54.1936ZM51.5863 54.1936C52.565 54.1827 53.5232 53.9132 54.3655 53.4126L53.3437 51.6933C52.8032 52.0145 52.1897 52.1868 51.5641 52.1937L51.5863 54.1936ZM54.3655 53.4126C55.2077 52.912 55.9043 52.1982 56.3869 51.343L54.6451 50.3601C54.3333 50.9127 53.8842 51.3721 53.3437 51.6933L54.3655 53.4126ZM56.3869 51.343C56.8695 50.488 57.1216 49.5209 57.1189 48.538L55.1189 48.5435C55.1206 49.181 54.9571 49.8074 54.6451 50.3601L56.3869 51.343ZM57.1189 48.538C57.1161 47.555 56.8587 46.5894 56.3714 45.737L54.6351 46.7297C54.9501 47.2806 55.1171 47.906 55.1189 48.5435L57.1189 48.538ZM56.3633 45.7233L36.907 12.9172L35.1868 13.9374L54.6431 46.7435L56.3633 45.7233ZM36.9042 12.9124C36.4066 12.084 35.7053 11.3978 34.8671 10.9211L33.8785 12.6597C34.4163 12.9655 34.8682 13.4069 35.1896 13.9421L36.9042 12.9124ZM34.8671 10.9211C34.0288 10.4444 33.0822 10.1936 32.1189 10.1936V12.1936C32.7347 12.1936 33.3407 12.3539 33.8785 12.6597L34.8671 10.9211ZM32.1189 10.1936C31.1556 10.1936 30.209 10.4444 29.3707 10.9211L30.3593 12.6597C30.8971 12.3539 31.5031 12.1936 32.1189 12.1936V10.1936ZM29.3707 10.9211C28.5324 11.3978 27.8312 12.084 27.3336 12.9124L29.0482 13.9421C29.3696 13.4069 29.8215 12.9655 30.3593 12.6597L29.3707 10.9211Z" fill="#555555" mask="url(#path-1-inside-1)"/>
<path d="M33 25C33 24.4477 32.5523 24 32 24C31.4477 24 31 24.4477 31 25H33ZM31 35C31 35.5523 31.4477 36 32 36C32.5523 36 33 35.5523 33 35H31ZM31 25V35H33V25H31Z" fill="#555555"/>
<mask id="path-4-inside-2" fill="white">
<path d="M34 43C34 44.1046 33.1046 45 32 45C30.8954 45 30 44.1046 30 43C30 41.8954 30.8954 41 32 41C33.1046 41 34 41.8954 34 43Z"/>
</mask>
<path d="M34 43C34 44.1046 33.1046 45 32 45C30.8954 45 30 44.1046 30 43C30 41.8954 30.8954 41 32 41C33.1046 41 34 41.8954 34 43Z" fill="#555555"/>
<path d="M33 43C33 43.5523 32.5523 44 32 44V46C33.6569 46 35 44.6569 35 43H33ZM32 44C31.4477 44 31 43.5523 31 43H29C29 44.6569 30.3431 46 32 46V44ZM31 43C31 42.4477 31.4477 42 32 42V40C30.3431 40 29 41.3431 29 43H31ZM32 42C32.5523 42 33 42.4477 33 43H35C35 41.3431 33.6569 40 32 40V42Z" fill="#555555" mask="url(#path-4-inside-2)"/>
</svg>
