<svg width="64" height="64" viewBox="0 0 64 64" fill="none" xmlns="http://www.w3.org/2000/svg">
<path d="M55.5 32C55.5 44.9787 44.9787 55.5 32 55.5C19.0213 55.5 8.5 44.9787 8.5 32C8.5 19.0213 19.0213 8.5 32 8.5C44.9787 8.5 55.5 19.0213 55.5 32Z" stroke="#555555"/>
<path d="M26 27C26 23.6863 28.6863 21 32 21C35.3137 21 38 23.6863 38 27C38 30.3137 35.3137 33 32 33V35" stroke="#555555" stroke-width="2" stroke-linejoin="round"/>
<mask id="path-3-inside-1" fill="white">
<path d="M34 40C34 41.1046 33.1046 42 32 42C30.8954 42 30 41.1046 30 40C30 38.8954 30.8954 38 32 38C33.1046 38 34 38.8954 34 40Z"/>
</mask>
<path d="M34 40C34 41.1046 33.1046 42 32 42C30.8954 42 30 41.1046 30 40C30 38.8954 30.8954 38 32 38C33.1046 38 34 38.8954 34 40Z" fill="#555555"/>
<path d="M33 40C33 40.5523 32.5523 41 32 41V43C33.6569 43 35 41.6569 35 40H33ZM32 41C31.4477 41 31 40.5523 31 40H29C29 41.6569 30.3431 43 32 43V41ZM31 40C31 39.4477 31.4477 39 32 39V37C30.3431 37 29 38.3431 29 40H31ZM32 39C32.5523 39 33 39.4477 33 40H35C35 38.3431 33.6569 37 32 37V39Z" fill="#555555" mask="url(#path-3-inside-1)"/>
</svg>
