<svg width="18" height="17" viewBox="0 0 18 17" fill="none" xmlns="http://www.w3.org/2000/svg">
<path d="M4.87377 10.3216H4.26212C3.93768 10.3216 3.62653 10.1936 3.39711 9.96591C3.1677 9.73819 3.03882 9.42933 3.03882 9.10728V3.643C3.03882 3.32095 3.1677 3.01209 3.39711 2.78437C3.62653 2.55664 3.93768 2.42871 4.26212 2.42871H9.76697C10.0914 2.42871 10.4026 2.55664 10.632 2.78437C10.8614 3.01209 10.9903 3.32095 10.9903 3.643V4.25014M8.54367 6.67871H14.0485C14.7241 6.67871 15.2718 7.22237 15.2718 7.893V13.3573C15.2718 14.0279 14.7241 14.5716 14.0485 14.5716H8.54367C7.86806 14.5716 7.32037 14.0279 7.32037 13.3573V7.893C7.32037 7.22237 7.86806 6.67871 8.54367 6.67871Z" stroke="#424952" stroke-linecap="round" stroke-linejoin="round"/>
</svg>
