<svg width="27" height="27" viewBox="0 0 27 27" fill="none" xmlns="http://www.w3.org/2000/svg">
<rect x="2.89258" y="12.5352" width="3.85714" height="5.78572" rx="1" fill="#7B558D"/>
<rect x="20.25" y="12.5352" width="3.85714" height="5.78572" rx="1" fill="#7B558D"/>
<path d="M13.5 10.125L13.5 6.75" stroke="#BEC9D4" stroke-linecap="round" stroke-linejoin="round"/>
<path d="M7.32815 20.8223L19.671 20.8223C20.5231 20.8223 21.2139 20.1027 21.2139 19.2151L21.2139 11.1794C21.2139 10.2918 20.5231 9.57226 19.671 9.57226L13.4996 9.57226L7.32815 9.57226C6.47605 9.57226 5.78529 10.2918 5.78529 11.1794L5.78529 19.2151C5.78529 20.1027 6.47605 20.8223 7.32815 20.8223Z" fill="white" stroke="#8996A3" stroke-linecap="round" stroke-linejoin="round"/>
<ellipse cx="13.4996" cy="4.91071" rx="2.41071" ry="2.41071" fill="#7B558D"/>
<line x1="11.1074" y1="17.4297" x2="15.8931" y2="17.4297" stroke="#6B7682" stroke-linecap="round"/>
<path d="M10.6073 14.0717C10.6073 14.6043 10.1756 15.036 9.643 15.036C9.11044 15.036 8.67871 14.6043 8.67871 14.0717C8.67871 13.5391 9.11044 13.1074 9.643 13.1074C10.1756 13.1074 10.6073 13.5391 10.6073 14.0717Z" fill="#6B7682"/>
<path d="M18.3211 14.0717C18.3211 14.6043 17.8894 15.036 17.3569 15.036C16.8243 15.036 16.3926 14.6043 16.3926 14.0717C16.3926 13.5391 16.8243 13.1074 17.3569 13.1074C17.8894 13.1074 18.3211 13.5391 18.3211 14.0717Z" fill="#6B7682"/>
</svg>
