<svg width="18" height="18" viewBox="0 0 18 18" fill="none" xmlns="http://www.w3.org/2000/svg">
<path d="M3.21429 5.14286H4.50001M4.50001 5.14286H14.7857M4.50001 5.14286V14.1429C4.50001 14.4838 4.63547 14.8109 4.87659 15.052C5.1177 15.2931 5.44473 15.4286 5.78572 15.4286H12.2143C12.5553 15.4286 12.8823 15.2931 13.1234 15.052C13.3646 14.8109 13.5 14.4838 13.5 14.1429V5.14286H4.50001ZM6.42858 5.14286V3.85714C6.42858 3.51615 6.56404 3.18912 6.80516 2.948C7.04628 2.70689 7.3733 2.57143 7.71429 2.57143H10.2857C10.6267 2.57143 10.9537 2.70689 11.1949 2.948C11.436 3.18912 11.5714 3.51615 11.5714 3.85714V5.14286M7.71429 8.35714V12.2143M10.2857 8.35714V12.2143" stroke="#F94B50" stroke-linecap="round" stroke-linejoin="round"/>
</svg>
