<svg width="30" height="30" viewBox="0 0 30 30" fill="none" xmlns="http://www.w3.org/2000/svg">
<path fill-rule="evenodd" clip-rule="evenodd" d="M22.8064 19.2435C22.7434 18.8959 22.786 18.5375 22.9286 18.2143C23.0644 17.8974 23.2899 17.6271 23.5774 17.4368C23.8648 17.2464 24.2017 17.1442 24.5464 17.1429H24.6429C25.2112 17.1429 25.7562 16.9171 26.1581 16.5152C26.56 16.1134 26.7857 15.5683 26.7857 15C26.7857 14.4317 26.56 13.8866 26.1581 13.4848C25.7562 13.0829 25.2112 12.8572 24.6429 12.8572H24.4607C24.116 12.8558 23.7791 12.7536 23.4917 12.5632C23.2042 12.3729 22.9787 12.1026 22.8429 11.7857V11.7C22.7002 11.3768 22.6577 11.0184 22.7207 10.6708C22.7837 10.3232 22.9494 10.0025 23.1964 9.75001L23.2607 9.68572C23.46 9.48671 23.618 9.25038 23.7258 8.99024C23.8337 8.7301 23.8892 8.45126 23.8892 8.16965C23.8892 7.88805 23.8337 7.6092 23.7258 7.34906C23.618 7.08893 23.46 6.85259 23.2607 6.65358C23.0617 6.45434 22.8254 6.29629 22.5652 6.18845C22.3051 6.08061 22.0262 6.02511 21.7446 6.02511C21.463 6.02511 21.1842 6.08061 20.9241 6.18845C20.6639 6.29629 20.4276 6.45434 20.2286 6.65358L20.1643 6.71787C19.9118 6.96487 19.5911 7.13056 19.2435 7.19358C18.8959 7.2566 18.5374 7.21406 18.2143 7.07144C17.8974 6.93562 17.6271 6.7101 17.4368 6.42265C17.2464 6.1352 17.1442 5.79835 17.1429 5.45358V5.35715C17.1429 4.78883 16.9171 4.24379 16.5152 3.84192C16.1134 3.44006 15.5683 3.21429 15 3.21429C14.4317 3.21429 13.8866 3.44006 13.4848 3.84192C13.0829 4.24379 12.8571 4.78883 12.8571 5.35715V5.53929C12.8558 5.88407 12.7536 6.22091 12.5632 6.50836C12.3729 6.79582 12.1026 7.02133 11.7857 7.15715H11.7C11.3768 7.29977 11.0184 7.34232 10.6708 7.2793C10.3232 7.21628 10.0025 7.05058 9.74999 6.80358L9.68571 6.73929C9.4867 6.54006 9.25036 6.382 8.99022 6.27417C8.73009 6.16633 8.45124 6.11082 8.16964 6.11082C7.88803 6.11082 7.60919 6.16633 7.34905 6.27417C7.08891 6.382 6.85258 6.54006 6.65357 6.73929C6.45433 6.93831 6.29628 7.17464 6.18844 7.43478C6.0806 7.69492 6.02509 7.97376 6.02509 8.25536C6.02509 8.53697 6.0806 8.81581 6.18844 9.07595C6.29628 9.33609 6.45433 9.57242 6.65357 9.77144L6.71785 9.83572C6.96486 10.0882 7.13055 10.409 7.19357 10.7565C7.25659 11.1041 7.21405 11.4626 7.07142 11.7857C6.94898 12.1187 6.7292 12.407 6.44067 12.6134C6.15214 12.8198 5.8082 12.9346 5.45357 12.9429H5.35714C4.78882 12.9429 4.24377 13.1686 3.84191 13.5705C3.44004 13.9724 3.21428 14.5174 3.21428 15.0857C3.21428 15.654 3.44004 16.1991 3.84191 16.6009C4.24377 17.0028 4.78882 17.2286 5.35714 17.2286H5.53928C5.88405 17.23 6.2209 17.3321 6.50835 17.5225C6.7958 17.7128 7.02132 17.9831 7.15714 18.3C7.29976 18.6232 7.3423 18.9816 7.27928 19.3292C7.21626 19.6768 7.05057 19.9975 6.80357 20.25L6.73928 20.3143C6.54005 20.5133 6.38199 20.7496 6.27415 21.0098C6.16632 21.2699 6.11081 21.5488 6.11081 21.8304C6.11081 22.112 6.16632 22.3908 6.27415 22.6509C6.38199 22.9111 6.54005 23.1474 6.73928 23.3464C6.9383 23.5457 7.17463 23.7037 7.43476 23.8116C7.6949 23.9194 7.97375 23.9749 8.25535 23.9749C8.53696 23.9749 8.8158 23.9194 9.07594 23.8116C9.33607 23.7037 9.57241 23.5457 9.77142 23.3464L9.83571 23.2821C10.0882 23.0351 10.4089 22.8694 10.7565 22.8064C11.1041 22.7434 11.4626 22.786 11.7857 22.9286C12.1186 23.051 12.407 23.2708 12.6134 23.5593C12.8198 23.8479 12.9346 24.1918 12.9429 24.5464V24.6429C12.9429 25.2112 13.1686 25.7562 13.5705 26.1581C13.9723 26.56 14.5174 26.7857 15.0857 26.7857C15.654 26.7857 16.1991 26.56 16.6009 26.1581C17.0028 25.7562 17.2286 25.2112 17.2286 24.6429V24.4607C17.2299 24.1159 17.3321 23.7791 17.5225 23.4917C17.7128 23.2042 17.9831 22.9787 18.3 22.8429C18.6232 22.7002 18.9816 22.6577 19.3292 22.7207C19.6768 22.7837 19.9975 22.9494 20.25 23.1964L20.3143 23.2607C20.5133 23.46 20.7496 23.618 21.0098 23.7258C21.2699 23.8337 21.5488 23.8892 21.8304 23.8892C22.112 23.8892 22.3908 23.8337 22.651 23.7258C22.9111 23.618 23.1474 23.46 23.3464 23.2607C23.5457 23.0617 23.7037 22.8254 23.8116 22.5652C23.9194 22.3051 23.9749 22.0263 23.9749 21.7446C23.9749 21.463 23.9194 21.1842 23.8116 20.9241C23.7037 20.6639 23.5457 20.4276 23.3464 20.2286L23.2822 20.1643C23.0351 19.9118 22.8695 19.5911 22.8064 19.2435ZM18.2143 15C18.2143 16.7752 16.7752 18.2143 15 18.2143C13.2248 18.2143 11.7857 16.7752 11.7857 15C11.7857 13.2248 13.2248 11.7857 15 11.7857C16.7752 11.7857 18.2143 13.2248 18.2143 15Z" fill="#56606B"/>
<path d="M22.9286 18.2143L23.386 18.4162L23.3882 18.4113L22.9286 18.2143ZM23.5774 17.4368L23.3013 17.0199L23.3013 17.0199L23.5774 17.4368ZM24.5464 17.1429V16.6429L24.5444 16.6429L24.5464 17.1429ZM26.1581 16.5152L25.8045 16.1617L25.8045 16.1617L26.1581 16.5152ZM26.1581 13.4848L25.8045 13.8383L26.1581 13.4848ZM24.4607 12.8572L24.4587 13.3572H24.4607V12.8572ZM23.4917 12.5632L23.2156 12.9801L23.2156 12.9801L23.4917 12.5632ZM22.8429 11.7857H22.3429C22.3429 11.8534 22.3566 11.9204 22.3833 11.9827L22.8429 11.7857ZM22.8429 11.7H23.3429C23.3429 11.6305 23.3284 11.5617 23.3003 11.4981L22.8429 11.7ZM23.1964 9.75001L22.8429 9.39644L22.839 9.40038L23.1964 9.75001ZM23.2607 9.68572L22.9074 9.33197L22.9072 9.33218L23.2607 9.68572ZM23.7258 8.99024L24.1877 9.18171V9.18171L23.7258 8.99024ZM23.7258 7.34906L23.264 7.54053V7.54053L23.7258 7.34906ZM23.2607 6.65358L22.907 7.00694L22.9074 7.00733L23.2607 6.65358ZM22.5652 6.18845L22.7567 5.72657L22.7567 5.72656L22.5652 6.18845ZM20.9241 6.18845L20.7326 5.72656L20.7326 5.72657L20.9241 6.18845ZM20.2286 6.65358L20.5821 7.00713L20.5823 7.00694L20.2286 6.65358ZM20.1643 6.71787L20.5139 7.07532L20.5178 7.07141L20.1643 6.71787ZM19.2435 7.19358L19.1543 6.70161L19.2435 7.19358ZM18.2143 7.07144L18.4162 6.61398L18.4113 6.61187L18.2143 7.07144ZM17.4368 6.42265L17.8536 6.14658L17.4368 6.42265ZM17.1429 5.45358H16.6429L16.6429 5.45557L17.1429 5.45358ZM16.5152 3.84192L16.8688 3.48837L16.8688 3.48837L16.5152 3.84192ZM13.4848 3.84192L13.1312 3.48837V3.48837L13.4848 3.84192ZM12.8571 5.53929L13.3571 5.54129V5.53929H12.8571ZM11.7857 7.15715V7.65715C11.8534 7.65715 11.9204 7.6434 11.9827 7.61672L11.7857 7.15715ZM11.7 7.15715V6.65715C11.6305 6.65715 11.5617 6.67165 11.4981 6.69972L11.7 7.15715ZM10.6708 7.2793L10.76 6.78732L10.6708 7.2793ZM9.74999 6.80358L9.39641 7.15715L9.40036 7.16101L9.74999 6.80358ZM9.68571 6.73929L9.33196 7.09265L9.33215 7.09284L9.68571 6.73929ZM8.99022 6.27417L9.18169 5.81228L9.18169 5.81228L8.99022 6.27417ZM7.34905 6.27417L7.15758 5.81228L7.15758 5.81228L7.34905 6.27417ZM6.65357 6.73929L7.00692 7.09304L7.00732 7.09265L6.65357 6.73929ZM6.18844 7.43478L6.65032 7.62625H6.65032L6.18844 7.43478ZM6.18844 9.07595L6.65032 8.88448L6.65032 8.88448L6.18844 9.07595ZM6.65357 9.77144L7.00712 9.41788L7.00692 9.41769L6.65357 9.77144ZM6.71785 9.83572L7.07531 9.48607L7.0714 9.48216L6.71785 9.83572ZM7.19357 10.7565L7.68555 10.6673L7.19357 10.7565ZM7.07142 11.7857L6.61399 11.5838C6.60974 11.5935 6.60579 11.6032 6.60215 11.6131L7.07142 11.7857ZM6.44067 12.6134L6.1498 12.2067L6.44067 12.6134ZM5.45357 12.9429V13.443L5.46526 13.4427L5.45357 12.9429ZM3.84191 13.5705L3.48835 13.2169L3.48835 13.2169L3.84191 13.5705ZM3.84191 16.6009L4.19546 16.2474L4.19546 16.2474L3.84191 16.6009ZM5.53928 17.2286L5.54127 16.7286H5.53928V17.2286ZM6.50835 17.5225L6.78442 17.1056L6.50835 17.5225ZM7.15714 18.3L6.69754 18.497L6.69971 18.5019L7.15714 18.3ZM7.27928 19.3292L7.77126 19.4184L7.27928 19.3292ZM6.80357 20.25L7.15715 20.6036L7.161 20.5996L6.80357 20.25ZM6.73928 20.3143L7.09264 20.668L7.09284 20.6678L6.73928 20.3143ZM6.27415 21.0098L6.73604 21.2012H6.73604L6.27415 21.0098ZM6.27415 22.6509L6.73604 22.4595H6.73604L6.27415 22.6509ZM6.73928 23.3464L7.09303 22.9931L7.09264 22.9927L6.73928 23.3464ZM7.43476 23.8116L7.24329 24.2734H7.24329L7.43476 23.8116ZM9.07594 23.8116L9.26741 24.2734H9.26741L9.07594 23.8116ZM9.77142 23.3464L9.41787 22.9929L9.41767 22.9931L9.77142 23.3464ZM9.83571 23.2821L9.48606 22.9247L9.48216 22.9286L9.83571 23.2821ZM10.7565 22.8064L10.6673 22.3145H10.6673L10.7565 22.8064ZM11.7857 22.9286L11.5838 23.386C11.5935 23.3903 11.6032 23.3942 11.6131 23.3978L11.7857 22.9286ZM12.9429 24.5464H13.443L13.4427 24.5347L12.9429 24.5464ZM16.6009 26.1581L16.9545 26.5116H16.9545L16.6009 26.1581ZM17.2286 24.4607L16.7286 24.4587V24.4607H17.2286ZM17.5225 23.4917L17.9393 23.7677L17.9393 23.7677L17.5225 23.4917ZM18.3 22.8429L18.497 23.3025L18.5019 23.3003L18.3 22.8429ZM19.3292 22.7207L19.4184 22.2287H19.4184L19.3292 22.7207ZM20.25 23.1964L20.6036 22.8429L20.5996 22.839L20.25 23.1964ZM20.3143 23.2607L20.668 22.9074L20.6678 22.9072L20.3143 23.2607ZM21.0098 23.7258L20.8183 24.1877L20.8183 24.1877L21.0098 23.7258ZM22.651 23.7258L22.8424 24.1877L22.8424 24.1877L22.651 23.7258ZM23.3464 23.2607L22.9931 22.907L22.9927 22.9074L23.3464 23.2607ZM23.3464 20.2286L22.9929 20.5821L22.9931 20.5823L23.3464 20.2286ZM23.2822 20.1643L22.9247 20.5139L22.9286 20.5179L23.2822 20.1643ZM22.4711 18.0124C22.2882 18.427 22.2336 18.8868 22.3145 19.3327L23.2984 19.1543C23.2532 18.905 23.2837 18.6479 23.386 18.4162L22.4711 18.0124ZM23.3013 17.0199C22.9325 17.2641 22.6432 17.6108 22.469 18.0173L23.3882 18.4113C23.4856 18.184 23.6473 17.9902 23.8534 17.8536L23.3013 17.0199ZM24.5444 16.6429C24.1022 16.6446 23.67 16.7757 23.3013 17.0199L23.8534 17.8536C24.0596 17.7171 24.3012 17.6438 24.5484 17.6429L24.5444 16.6429ZM24.6429 16.6429H24.5464V17.6429H24.6429V16.6429ZM25.8045 16.1617C25.4964 16.4698 25.0786 16.6429 24.6429 16.6429V17.6429C25.3438 17.6429 26.016 17.3644 26.5116 16.8688L25.8045 16.1617ZM26.2857 15C26.2857 15.4357 26.1126 15.8536 25.8045 16.1617L26.5116 16.8688C27.0073 16.3732 27.2857 15.7009 27.2857 15H26.2857ZM25.8045 13.8383C26.1126 14.1464 26.2857 14.5643 26.2857 15H27.2857C27.2857 14.2991 27.0073 13.6269 26.5116 13.1312L25.8045 13.8383ZM24.6429 13.3572C25.0786 13.3572 25.4964 13.5302 25.8045 13.8383L26.5116 13.1312C26.016 12.6356 25.3438 12.3572 24.6429 12.3572V13.3572ZM24.4607 13.3572H24.6429V12.3572H24.4607V13.3572ZM23.2156 12.9801C23.5843 13.2243 24.0164 13.3554 24.4587 13.3571L24.4627 12.3572C24.2155 12.3562 23.9739 12.2829 23.7677 12.1464L23.2156 12.9801ZM22.3833 11.9827C22.5575 12.3892 22.8468 12.7359 23.2156 12.9801L23.7677 12.1464C23.5616 12.0099 23.3998 11.816 23.3024 11.5888L22.3833 11.9827ZM22.3429 11.7V11.7857H23.3429V11.7H22.3429ZM22.2287 10.5816C22.1479 11.0275 22.2025 11.4873 22.3854 11.9019L23.3003 11.4981C23.198 11.2664 23.1675 11.0093 23.2127 10.76L22.2287 10.5816ZM22.839 9.40038C22.5221 9.7243 22.3096 10.1357 22.2287 10.5816L23.2127 10.76C23.2579 10.5107 23.3767 10.2807 23.5539 10.0996L22.839 9.40038ZM22.9072 9.33218L22.8429 9.39646L23.55 10.1036L23.6143 10.0393L22.9072 9.33218ZM23.264 8.79877C23.1813 8.99821 23.0601 9.17939 22.9074 9.33197L23.6141 10.0395C23.8598 9.79402 24.0547 9.50255 24.1877 9.18171L23.264 8.79877ZM23.3892 8.16965C23.3892 8.38555 23.3466 8.59933 23.264 8.79877L24.1877 9.18171C24.3207 8.86087 24.3892 8.51696 24.3892 8.16965H23.3892ZM23.264 7.54053C23.3466 7.73997 23.3892 7.95375 23.3892 8.16965H24.3892C24.3892 7.82234 24.3207 7.47843 24.1877 7.15759L23.264 7.54053ZM22.9074 7.00733C23.0601 7.15991 23.1813 7.3411 23.264 7.54053L24.1877 7.15759C24.0547 6.83676 23.8598 6.54528 23.6141 6.29983L22.9074 7.00733ZM22.3738 6.65034C22.5732 6.73301 22.7544 6.85419 22.907 7.00694L23.6145 6.30022C23.369 6.0545 23.0775 5.85957 22.7567 5.72657L22.3738 6.65034ZM21.7446 6.52511C21.9605 6.52511 22.1743 6.56766 22.3738 6.65034L22.7567 5.72656C22.4359 5.59356 22.092 5.52511 21.7446 5.52511V6.52511ZM21.1155 6.65034C21.315 6.56766 21.5287 6.52511 21.7446 6.52511V5.52511C21.3973 5.52511 21.0534 5.59357 20.7326 5.72656L21.1155 6.65034ZM20.5823 7.00694C20.7349 6.85419 20.9161 6.73302 21.1155 6.65034L20.7326 5.72657C20.4118 5.85956 20.1203 6.0545 19.8748 6.30022L20.5823 7.00694ZM20.5178 7.07141L20.5821 7.00713L19.875 6.30003L19.8107 6.36432L20.5178 7.07141ZM19.3327 7.68556C19.7786 7.60472 20.19 7.39216 20.5139 7.0753L19.8147 6.36043C19.6336 6.53758 19.4035 6.65641 19.1543 6.70161L19.3327 7.68556ZM18.0124 7.52887C18.427 7.71183 18.8868 7.76641 19.3327 7.68556L19.1543 6.70161C18.905 6.7468 18.6479 6.71629 18.4162 6.61401L18.0124 7.52887ZM17.0199 6.69872C17.2641 7.06748 17.6108 7.35678 18.0173 7.53101L18.4113 6.61187C18.184 6.51446 17.9902 6.35273 17.8536 6.14658L17.0199 6.69872ZM16.6429 5.45557C16.6446 5.89786 16.7757 6.32997 17.0199 6.69872L17.8536 6.14658C17.7171 5.94042 17.6438 5.69884 17.6429 5.45159L16.6429 5.45557ZM16.6429 5.35715V5.45358H17.6429V5.35715H16.6429ZM16.1617 4.19548C16.4698 4.50357 16.6429 4.92144 16.6429 5.35715H17.6429C17.6429 4.65622 17.3644 3.984 16.8688 3.48837L16.1617 4.19548ZM15 3.71429C15.4357 3.71429 15.8536 3.88738 16.1617 4.19548L16.8688 3.48837C16.3731 2.99274 15.7009 2.71429 15 2.71429V3.71429ZM13.8383 4.19548C14.1464 3.88738 14.5643 3.71429 15 3.71429V2.71429C14.2991 2.71429 13.6268 2.99274 13.1312 3.48837L13.8383 4.19548ZM13.3571 5.35715C13.3571 4.92144 13.5302 4.50357 13.8383 4.19548L13.1312 3.48837C12.6356 3.984 12.3571 4.65622 12.3571 5.35715H13.3571ZM13.3571 5.53929V5.35715H12.3571V5.53929H13.3571ZM12.9801 6.78444C13.2243 6.41569 13.3554 5.98357 13.3571 5.54129L12.3571 5.5373C12.3562 5.78456 12.2829 6.02613 12.1464 6.23229L12.9801 6.78444ZM11.9827 7.61672C12.3892 7.44249 12.7359 7.15319 12.9801 6.78444L12.1464 6.23229C12.0098 6.43844 11.816 6.60018 11.5887 6.69758L11.9827 7.61672ZM11.7 7.65715H11.7857V6.65715H11.7V7.65715ZM10.5816 7.77128C11.0275 7.85212 11.4873 7.79754 11.9019 7.61458L11.4981 6.69972C11.2663 6.80201 11.0093 6.83252 10.76 6.78732L10.5816 7.77128ZM9.40036 7.16101C9.72429 7.47788 10.1357 7.69043 10.5816 7.77128L10.76 6.78732C10.5107 6.74212 10.2807 6.62329 10.0996 6.44615L9.40036 7.16101ZM9.33215 7.09284L9.39643 7.15712L10.1036 6.45003L10.0393 6.38575L9.33215 7.09284ZM8.79875 6.73605C8.99819 6.81873 9.17938 6.9399 9.33196 7.09265L10.0395 6.38594C9.79401 6.14021 9.50253 5.94528 9.18169 5.81228L8.79875 6.73605ZM8.16964 6.61082C8.38554 6.61082 8.59931 6.65338 8.79875 6.73605L9.18169 5.81228C8.86086 5.67928 8.51695 5.61082 8.16964 5.61082V6.61082ZM7.54052 6.73605C7.73996 6.65338 7.95374 6.61082 8.16964 6.61082V5.61082C7.82233 5.61082 7.47842 5.67928 7.15758 5.81228L7.54052 6.73605ZM7.00732 7.09265C7.15989 6.9399 7.34108 6.81873 7.54052 6.73605L7.15758 5.81228C6.83675 5.94528 6.54527 6.14021 6.29982 6.38594L7.00732 7.09265ZM6.65032 7.62625C6.733 7.42681 6.85418 7.24562 7.00692 7.09304L6.30021 6.38554C6.05449 6.63099 5.85955 6.92247 5.72655 7.24331L6.65032 7.62625ZM6.52509 8.25536C6.52509 8.03947 6.56765 7.82569 6.65032 7.62625L5.72655 7.24331C5.59355 7.56415 5.52509 7.90805 5.52509 8.25536H6.52509ZM6.65032 8.88448C6.56765 8.68504 6.52509 8.47126 6.52509 8.25536H5.52509C5.52509 8.60268 5.59355 8.94658 5.72655 9.26742L6.65032 8.88448ZM7.00692 9.41769C6.85418 9.26511 6.733 9.08392 6.65032 8.88448L5.72655 9.26742C5.85955 9.58826 6.05449 9.87974 6.30021 10.1252L7.00692 9.41769ZM7.0714 9.48216L7.00712 9.41788L6.30002 10.125L6.3643 10.1893L7.0714 9.48216ZM7.68555 10.6673C7.60471 10.2214 7.39215 9.81002 7.07528 9.48609L6.36042 10.1854C6.53757 10.3664 6.6564 10.5965 6.70159 10.8457L7.68555 10.6673ZM7.52885 11.9876C7.71181 11.573 7.76639 11.1132 7.68555 10.6673L6.70159 10.8457C6.74679 11.095 6.71628 11.3521 6.61399 11.5838L7.52885 11.9876ZM6.73155 13.0201C7.10168 12.7554 7.38361 12.3854 7.54069 11.9583L6.60215 11.6131C6.51434 11.8519 6.35672 12.0587 6.1498 12.2067L6.73155 13.0201ZM5.46526 13.4427C5.9202 13.4321 6.36141 13.2848 6.73155 13.0201L6.1498 12.2067C5.94287 12.3547 5.69621 12.4371 5.44188 12.443L5.46526 13.4427ZM5.35714 13.4429H5.45357V12.4429H5.35714V13.4429ZM4.19546 13.924C4.50356 13.616 4.92143 13.4429 5.35714 13.4429V12.4429C4.65621 12.4429 3.98399 12.7213 3.48835 13.2169L4.19546 13.924ZM3.71428 15.0857C3.71428 14.65 3.88737 14.2321 4.19546 13.924L3.48835 13.2169C2.99272 13.7126 2.71428 14.3848 2.71428 15.0857H3.71428ZM4.19546 16.2474C3.88737 15.9393 3.71428 15.5214 3.71428 15.0857H2.71428C2.71428 15.7867 2.99272 16.4589 3.48835 16.9545L4.19546 16.2474ZM5.35714 16.7286C4.92142 16.7286 4.50356 16.5555 4.19546 16.2474L3.48835 16.9545C3.98399 17.4501 4.65621 17.7286 5.35714 17.7286V16.7286ZM5.53928 16.7286H5.35714V17.7286H5.53928V16.7286ZM6.78442 17.1056C6.41567 16.8614 5.98356 16.7303 5.54127 16.7286L5.53729 17.7286C5.78454 17.7296 6.02612 17.8028 6.23227 17.9394L6.78442 17.1056ZM7.61671 18.103C7.44248 17.6965 7.15318 17.3498 6.78442 17.1056L6.23227 17.9394C6.43843 18.0759 6.60017 18.2697 6.69757 18.497L7.61671 18.103ZM7.77126 19.4184C7.85211 18.9725 7.79753 18.5127 7.61457 18.0981L6.69971 18.5019C6.80199 18.7336 6.8325 18.9907 6.78731 19.24L7.77126 19.4184ZM7.161 20.5996C7.47786 20.2757 7.69042 19.8643 7.77126 19.4184L6.78731 19.24C6.74211 19.4893 6.62328 19.7193 6.44613 19.9004L7.161 20.5996ZM7.09284 20.6678L7.15712 20.6036L6.45001 19.8965L6.38572 19.9607L7.09284 20.6678ZM6.73604 21.2012C6.81872 21.0018 6.93989 20.8206 7.09264 20.668L6.38593 19.9605C6.1402 20.206 5.94527 20.4975 5.81227 20.8183L6.73604 21.2012ZM6.61081 21.8304C6.61081 21.6145 6.65336 21.4007 6.73604 21.2012L5.81227 20.8183C5.67927 21.1391 5.61081 21.4831 5.61081 21.8304H6.61081ZM6.73604 22.4595C6.65336 22.26 6.61081 22.0463 6.61081 21.8304H5.61081C5.61081 22.1777 5.67927 22.5216 5.81227 22.8424L6.73604 22.4595ZM7.09264 22.9927C6.93989 22.8401 6.81872 22.6589 6.73604 22.4595L5.81227 22.8424C5.94527 23.1633 6.1402 23.4547 6.38592 23.7002L7.09264 22.9927ZM7.62623 23.3497C7.42679 23.267 7.24561 23.1458 7.09303 22.9931L6.38553 23.6998C6.63098 23.9455 6.92246 24.1404 7.24329 24.2734L7.62623 23.3497ZM8.25535 23.4749C8.03946 23.4749 7.82568 23.4324 7.62623 23.3497L7.24329 24.2734C7.56413 24.4064 7.90804 24.4749 8.25535 24.4749V23.4749ZM8.88447 23.3497C8.68502 23.4324 8.47124 23.4749 8.25535 23.4749V24.4749C8.60267 24.4749 8.94657 24.4064 9.26741 24.2734L8.88447 23.3497ZM9.41767 22.9931C9.2651 23.1458 9.08391 23.267 8.88447 23.3497L9.26741 24.2734C9.58824 24.1404 9.87972 23.9455 10.1252 23.6998L9.41767 22.9931ZM9.48216 22.9286L9.41787 22.9929L10.125 23.7L10.1893 23.6357L9.48216 22.9286ZM10.6673 22.3145C10.2214 22.3953 9.81001 22.6079 9.48608 22.9247L10.1853 23.6396C10.3664 23.4624 10.5964 23.3436 10.8457 23.2984L10.6673 22.3145ZM11.9876 22.4711C11.573 22.2882 11.1132 22.2336 10.6673 22.3145L10.8457 23.2984C11.095 23.2532 11.3521 23.2837 11.5838 23.386L11.9876 22.4711ZM13.0201 23.2685C12.7554 22.8983 12.3854 22.6164 11.9583 22.4593L11.6131 23.3978C11.8519 23.4857 12.0587 23.6433 12.2067 23.8502L13.0201 23.2685ZM13.4427 24.5347C13.4321 24.0798 13.2848 23.6386 13.0201 23.2685L12.2067 23.8502C12.3547 24.0571 12.437 24.3038 12.443 24.5581L13.4427 24.5347ZM13.4429 24.6429V24.5464H12.4429V24.6429H13.4429ZM13.924 25.8045C13.6159 25.4964 13.4429 25.0786 13.4429 24.6429H12.4429C12.4429 25.3438 12.7213 26.016 13.2169 26.5116L13.924 25.8045ZM15.0857 26.2857C14.65 26.2857 14.2321 26.1126 13.924 25.8045L13.2169 26.5116C13.7126 27.0073 14.3848 27.2857 15.0857 27.2857V26.2857ZM16.2474 25.8045C15.9393 26.1126 15.5214 26.2857 15.0857 26.2857V27.2857C15.7866 27.2857 16.4589 27.0073 16.9545 26.5116L16.2474 25.8045ZM16.7286 24.6429C16.7286 25.0786 16.5555 25.4964 16.2474 25.8045L16.9545 26.5116C17.4501 26.016 17.7286 25.3438 17.7286 24.6429H16.7286ZM16.7286 24.4607V24.6429H17.7286V24.4607H16.7286ZM17.1056 23.2156C16.8614 23.5843 16.7303 24.0164 16.7286 24.4587L17.7286 24.4627C17.7296 24.2155 17.8028 23.9739 17.9393 23.7677L17.1056 23.2156ZM18.103 22.3833C17.6965 22.5575 17.3498 22.8468 17.1056 23.2156L17.9393 23.7677C18.0759 23.5616 18.2697 23.3998 18.497 23.3024L18.103 22.3833ZM19.4184 22.2287C18.9725 22.1479 18.5127 22.2025 18.0981 22.3854L18.5019 23.3003C18.7336 23.198 18.9907 23.1675 19.24 23.2127L19.4184 22.2287ZM20.5996 22.839C20.2757 22.5221 19.8643 22.3096 19.4184 22.2287L19.24 23.2127C19.4893 23.2579 19.7193 23.3767 19.9004 23.5539L20.5996 22.839ZM20.6678 22.9072L20.6036 22.8429L19.8964 23.55L19.9607 23.6143L20.6678 22.9072ZM21.2012 23.264C21.0018 23.1813 20.8206 23.0601 20.668 22.9074L19.9605 23.6141C20.206 23.8598 20.4975 24.0547 20.8183 24.1877L21.2012 23.264ZM21.8304 23.3892C21.6145 23.3892 21.4007 23.3466 21.2012 23.264L20.8183 24.1877C21.1391 24.3207 21.483 24.3892 21.8304 24.3892V23.3892ZM22.4595 23.264C22.26 23.3466 22.0463 23.3892 21.8304 23.3892V24.3892C22.1777 24.3892 22.5216 24.3207 22.8424 24.1877L22.4595 23.264ZM22.9927 22.9074C22.8401 23.0601 22.6589 23.1813 22.4595 23.264L22.8424 24.1877C23.1633 24.0547 23.4547 23.8598 23.7002 23.6141L22.9927 22.9074ZM23.3497 22.3738C23.267 22.5732 23.1458 22.7544 22.9931 22.907L23.6998 23.6145C23.9455 23.369 24.1405 23.0775 24.2735 22.7567L23.3497 22.3738ZM23.4749 21.7446C23.4749 21.9605 23.4324 22.1743 23.3497 22.3738L24.2735 22.7567C24.4065 22.4359 24.4749 22.092 24.4749 21.7446H23.4749ZM23.3497 21.1155C23.4324 21.315 23.4749 21.5287 23.4749 21.7446H24.4749C24.4749 21.3973 24.4065 21.0534 24.2735 20.7326L23.3497 21.1155ZM22.9931 20.5823C23.1458 20.7349 23.267 20.9161 23.3497 21.1155L24.2735 20.7326C24.1405 20.4118 23.9455 20.1203 23.6998 19.8748L22.9931 20.5823ZM22.9286 20.5179L22.9929 20.5821L23.7 19.875L23.6357 19.8107L22.9286 20.5179ZM22.3145 19.3327C22.3953 19.7786 22.6079 20.19 22.9247 20.5139L23.6396 19.8147C23.4624 19.6336 23.3436 19.4036 23.2984 19.1543L22.3145 19.3327ZM15 18.7143C17.0513 18.7143 18.7143 17.0514 18.7143 15H17.7143C17.7143 16.4991 16.4991 17.7143 15 17.7143V18.7143ZM11.2857 15C11.2857 17.0514 12.9487 18.7143 15 18.7143V17.7143C13.5009 17.7143 12.2857 16.4991 12.2857 15H11.2857ZM15 11.2857C12.9487 11.2857 11.2857 12.9487 11.2857 15H12.2857C12.2857 13.5009 13.5009 12.2857 15 12.2857V11.2857ZM18.7143 15C18.7143 12.9487 17.0513 11.2857 15 11.2857V12.2857C16.4991 12.2857 17.7143 13.5009 17.7143 15H18.7143Z" fill="#56606B"/>
</svg>
