<svg width="18" height="18" viewBox="0 0 18 18" fill="none" xmlns="http://www.w3.org/2000/svg">
<path d="M3.21423 5.14284H4.49995M4.49995 5.14284H14.7857M4.49995 5.14284V14.1428C4.49995 14.4838 4.63541 14.8109 4.87652 15.052C5.11764 15.2931 5.44467 15.4286 5.78566 15.4286H12.2142C12.5552 15.4286 12.8823 15.2931 13.1234 15.052C13.3645 14.8109 13.4999 14.4838 13.4999 14.1428V5.14284H4.49995ZM6.42852 5.14284V3.85713C6.42852 3.51613 6.56398 3.18911 6.8051 2.94799C7.04621 2.70687 7.37324 2.57141 7.71423 2.57141H10.2857C10.6267 2.57141 10.9537 2.70687 11.1948 2.94799C11.4359 3.18911 11.5714 3.51613 11.5714 3.85713V5.14284M7.71423 8.35713V12.2143M10.2857 8.35713V12.2143" stroke="#6B7682" stroke-linecap="round" stroke-linejoin="round"/>
</svg>
