<svg width="14" height="14" viewBox="0 0 14 14" fill="none" xmlns="http://www.w3.org/2000/svg">
<path d="M2.5 4H11.5M5 4V3C5 2.73478 5.10536 2.48043 5.29289 2.29289C5.48043 2.10536 5.73478 2 6 2H8C8.26522 2 8.51957 2.10536 8.70711 2.29289C8.89464 2.48043 9 2.73478 9 3V4M10.5 4V11C10.5 11.2652 10.3946 11.5196 10.2071 11.7071C10.0196 11.8946 9.76522 12 9.5 12H4.5C4.23478 12 3.98043 11.8946 3.79289 11.7071C3.60536 11.5196 3.5 11.2652 3.5 11V4H10.5Z" stroke="#F94B50" stroke-linecap="round" stroke-linejoin="round"/>
</svg>
