<svg width="18" height="18" viewBox="0 0 18 18" fill="none" xmlns="http://www.w3.org/2000/svg">
<path d="M13.7572 10.9286L14.2146 11.1305L14.2167 11.1255L13.7572 10.9286ZM14.1464 10.462L14.4225 10.8789L14.4225 10.8789L14.1464 10.462ZM14.7279 10.2857V9.7857L14.7259 9.7857L14.7279 10.2857ZM15.6949 9.90912L16.0484 10.2627L16.0484 10.2627L15.6949 9.90912ZM15.6949 8.09085L16.0484 7.7373V7.7373L15.6949 8.09085ZM14.6765 7.71427L14.6745 8.21427H14.6765V7.71427ZM14.095 7.53793L13.8189 7.9548L13.8189 7.95481L14.095 7.53793ZM13.7057 7.07142H13.2057C13.2057 7.13913 13.2195 7.20614 13.2462 7.26838L13.7057 7.07142ZM13.7057 7.01999H14.2057C14.2057 6.95047 14.1912 6.88171 14.1632 6.8181L13.7057 7.01999ZM13.6324 6.40247L13.1405 6.31326V6.31326L13.6324 6.40247ZM13.9179 5.84999L13.5643 5.49642L13.5605 5.50035L13.9179 5.84999ZM13.9565 5.81142L13.6031 5.45767L13.6029 5.45787L13.9565 5.81142ZM14.2355 5.39412L14.6974 5.5856V5.5856L14.2355 5.39412ZM14.2355 4.40942L14.6974 4.21795V4.21795L14.2355 4.40942ZM13.9565 3.99213L13.6027 4.34549L13.6031 4.34588L13.9565 3.99213ZM12.1372 3.99213L12.4907 4.34568L12.4909 4.34549L12.1372 3.99213ZM12.0986 4.0307L12.4482 4.38815L12.4522 4.38425L12.0986 4.0307ZM11.5461 4.31613L11.4569 3.82415L11.5461 4.31613ZM10.9286 4.24284L11.1305 3.78539L11.1256 3.78327L10.9286 4.24284ZM10.4621 3.85357L10.879 3.5775L10.8789 3.5775L10.4621 3.85357ZM10.2857 3.27213H9.78573L9.78574 3.27413L10.2857 3.27213ZM9.90916 2.30514L9.5556 2.65869V2.65869L9.90916 2.30514ZM8.09088 2.30514L7.73733 1.95158L7.73733 1.95158L8.09088 2.30514ZM7.71431 3.32356L8.21431 3.32555V3.32356H7.71431ZM7.53796 3.905L7.12109 3.62893L7.12109 3.62893L7.53796 3.905ZM7.07145 4.29427V4.79427C7.13916 4.79427 7.20617 4.78052 7.26841 4.75384L7.07145 4.29427ZM7.02002 4.29427V3.79427C6.9505 3.79427 6.88174 3.80877 6.81813 3.83684L7.02002 4.29427ZM6.4025 4.36756L6.4917 3.87558L6.4025 4.36756ZM5.85002 4.08213L5.49644 4.4357L5.50038 4.43956L5.85002 4.08213ZM5.81145 4.04356L5.4577 4.39691L5.45789 4.39711L5.81145 4.04356ZM5.39416 3.76448L5.20268 4.22637L5.20269 4.22637L5.39416 3.76448ZM4.40945 3.76448L4.60092 4.22637H4.60092L4.40945 3.76448ZM3.99216 4.04356L4.34552 4.39731L4.34591 4.39692L3.99216 4.04356ZM3.71308 4.46085L3.2512 4.26938L3.2512 4.26938L3.71308 4.46085ZM3.71308 5.44555L4.17497 5.25408V5.25408L3.71308 5.44555ZM3.99216 5.86284L4.34571 5.50929L4.34552 5.50909L3.99216 5.86284ZM4.03073 5.90142L4.38819 5.55176L4.38428 5.54786L4.03073 5.90142ZM4.31616 6.45389L4.80814 6.36469V6.36469L4.31616 6.45389ZM4.24287 7.07142L3.78544 6.86953C3.78119 6.87917 3.77724 6.88894 3.77361 6.89883L4.24287 7.07142ZM3.86443 7.56803L3.57355 7.16134H3.57355L3.86443 7.56803ZM3.27216 7.7657V8.26584L3.28385 8.26556L3.27216 7.7657ZM2.30517 8.14228L1.95161 7.78872L1.95161 7.78872L2.30517 8.14228ZM2.30517 9.96055L2.65872 9.607L2.65872 9.607L2.30517 9.96055ZM3.32359 10.3371L3.32558 9.83713H3.32359V10.3371ZM3.90503 10.5135L4.18111 10.0966L4.1811 10.0966L3.90503 10.5135ZM4.2943 10.98L3.83471 11.177L3.83687 11.1819L4.2943 10.98ZM4.36759 11.5975L3.87561 11.5083L3.87561 11.5083L4.36759 11.5975ZM4.08216 12.15L4.43574 12.5036L4.43959 12.4996L4.08216 12.15ZM4.04359 12.1886L4.39695 12.5423L4.39715 12.5421L4.04359 12.1886ZM3.76451 13.5906L3.30263 13.782L3.30263 13.782L3.76451 13.5906ZM4.04359 14.0078L4.39734 13.6545L4.39695 13.6541L4.04359 14.0078ZM4.46088 14.2869L4.26941 14.7488H4.26941L4.46088 14.2869ZM5.44558 14.2869L5.63705 14.7488H5.63705L5.44558 14.2869ZM5.86287 14.0078L5.50932 13.6543L5.50912 13.6545L5.86287 14.0078ZM5.90145 13.9693L5.55179 13.6118L5.54789 13.6157L5.90145 13.9693ZM6.45392 13.6838L6.36472 13.1919H6.36472L6.45392 13.6838ZM7.07145 13.7571L6.86957 14.2146C6.8792 14.2188 6.88897 14.2228 6.89886 14.2264L7.07145 13.7571ZM7.76573 14.7278H8.26587L8.2656 14.7162L7.76573 14.7278ZM8.14231 15.6948L7.78876 16.0484L7.78876 16.0484L8.14231 15.6948ZM9.96059 15.6948L10.3141 16.0484L10.3141 16.0484L9.96059 15.6948ZM10.3372 14.6764L9.83716 14.6744V14.6764H10.3372ZM10.5135 14.095L10.0966 13.8189L10.0966 13.8189L10.5135 14.095ZM10.98 13.7057L11.177 14.1653L11.1819 14.1631L10.98 13.7057ZM11.5975 13.6324L11.5083 14.1244L11.5083 14.1244L11.5975 13.6324ZM12.15 13.9178L12.5036 13.5643L12.4997 13.5604L12.15 13.9178ZM12.1886 13.9564L12.5423 13.6031L12.5422 13.6029L12.1886 13.9564ZM12.6059 14.2355L12.7974 13.7736L12.7974 13.7736L12.6059 14.2355ZM13.5906 14.2355L13.3991 13.7736L13.3991 13.7736L13.5906 14.2355ZM14.0079 13.9564L13.6545 13.6027L13.6541 13.6031L14.0079 13.9564ZM14.0079 12.1371L13.6543 12.4907L13.6545 12.4909L14.0079 12.1371ZM13.9693 12.0986L13.6119 12.4482L13.6158 12.4521L13.9693 12.0986ZM13.2997 10.7267C13.1738 11.012 13.1363 11.3284 13.1919 11.6353L14.1759 11.4569C14.1559 11.3466 14.1694 11.2329 14.2146 11.1304L13.2997 10.7267ZM13.8704 10.0452C13.6166 10.2132 13.4175 10.4518 13.2976 10.7316L14.2167 11.1255C14.2598 11.025 14.3313 10.9393 14.4225 10.8789L13.8704 10.0452ZM14.7259 9.7857C14.4215 9.78692 14.1241 9.87711 13.8704 10.0452L14.4225 10.8789C14.5137 10.8185 14.6205 10.7861 14.7299 10.7857L14.7259 9.7857ZM14.7857 9.7857H14.7279V10.7857H14.7857V9.7857ZM15.3413 9.55557C15.194 9.70292 14.9941 9.7857 14.7857 9.7857V10.7857C15.2593 10.7857 15.7135 10.5976 16.0484 10.2627L15.3413 9.55557ZM15.5715 8.99999C15.5715 9.20837 15.4887 9.40822 15.3413 9.55557L16.0484 10.2627C16.3833 9.92779 16.5715 9.47359 16.5715 8.99999H15.5715ZM15.3413 8.4444C15.4887 8.59175 15.5715 8.7916 15.5715 8.99999H16.5715C16.5715 8.52639 16.3833 8.07218 16.0484 7.7373L15.3413 8.4444ZM14.7857 8.21427C14.9941 8.21427 15.194 8.29705 15.3413 8.4444L16.0484 7.7373C15.7135 7.40241 15.2593 7.21427 14.7857 7.21427V8.21427ZM14.6765 8.21427H14.7857V7.21427H14.6765V8.21427ZM13.8189 7.95481C14.0727 8.12287 14.3701 8.21305 14.6745 8.21427L14.6784 7.21428C14.5691 7.21384 14.4623 7.18144 14.3711 7.12106L13.8189 7.95481ZM13.2462 7.26838C13.3661 7.54815 13.5652 7.78674 13.8189 7.9548L14.3711 7.12106C14.2799 7.06068 14.2084 6.97496 14.1653 6.87445L13.2462 7.26838ZM13.2057 7.01999V7.07142H14.2057V7.01999H13.2057ZM13.1405 6.31326C13.0848 6.6201 13.1224 6.93658 13.2483 7.22187L14.1632 6.8181C14.1179 6.71561 14.1044 6.60191 14.1244 6.49167L13.1405 6.31326ZM13.5605 5.50035C13.3424 5.72328 13.1961 6.00642 13.1405 6.31326L14.1244 6.49167C14.1444 6.38144 14.197 6.27971 14.2753 6.19962L13.5605 5.50035ZM13.6029 5.45787L13.5643 5.49644L14.2714 6.20353L14.31 6.16496L13.6029 5.45787ZM13.7736 5.20265C13.7341 5.29804 13.6761 5.38469 13.6031 5.45767L14.3098 6.16517C14.4758 5.99932 14.6076 5.80238 14.6974 5.5856L13.7736 5.20265ZM13.8335 4.90177C13.8335 5.00503 13.8132 5.10727 13.7736 5.20265L14.6974 5.5856C14.7873 5.36881 14.8335 5.13644 14.8335 4.90177H13.8335ZM13.7736 4.60089C13.8132 4.69628 13.8335 4.79852 13.8335 4.90177H14.8335C14.8335 4.6671 14.7873 4.43473 14.6974 4.21795L13.7736 4.60089ZM13.6031 4.34588C13.6761 4.41885 13.7341 4.50551 13.7736 4.60089L14.6974 4.21795C14.6076 4.00117 14.4758 3.80422 14.3098 3.63838L13.6031 4.34588ZM13.3477 4.17494C13.4431 4.21448 13.5297 4.27243 13.6027 4.34549L14.3102 3.63877C14.1444 3.47275 13.9474 3.34103 13.7306 3.25117L13.3477 4.17494ZM13.0468 4.11505C13.1501 4.11505 13.2523 4.1354 13.3477 4.17494L13.7306 3.25117C13.5139 3.1613 13.2815 3.11505 13.0468 3.11505V4.11505ZM12.7459 4.17494C12.8413 4.1354 12.9436 4.11505 13.0468 4.11505V3.11505C12.8121 3.11505 12.5798 3.1613 12.363 3.25117L12.7459 4.17494ZM12.4909 4.34549C12.5639 4.27244 12.6505 4.21448 12.7459 4.17494L12.363 3.25117C12.1462 3.34103 11.9493 3.47274 11.7834 3.63877L12.4909 4.34549ZM12.4522 4.38425L12.4907 4.34568L11.7836 3.63858L11.745 3.67715L12.4522 4.38425ZM11.6353 4.80811C11.9422 4.75248 12.2253 4.6062 12.4482 4.38813L11.749 3.67327C11.6689 3.75161 11.5671 3.80417 11.4569 3.82415L11.6353 4.80811ZM10.7267 4.70028C11.012 4.82619 11.3285 4.86375 11.6353 4.80811L11.4569 3.82415C11.3467 3.84414 11.233 3.83065 11.1305 3.78541L10.7267 4.70028ZM10.0452 4.12965C10.2133 4.38342 10.4519 4.58251 10.7316 4.70241L11.1256 3.78327C11.025 3.7402 10.9393 3.66867 10.879 3.5775L10.0452 4.12965ZM9.78574 3.27413C9.78696 3.5785 9.87714 3.87587 10.0452 4.12965L10.8789 3.5775C10.8186 3.48633 10.7862 3.37949 10.7857 3.27013L9.78574 3.27413ZM9.78574 3.21427V3.27213H10.7857V3.21427H9.78574ZM9.5556 2.65869C9.70296 2.80604 9.78574 3.00589 9.78574 3.21427H10.7857C10.7857 2.74067 10.5976 2.28647 10.2627 1.95158L9.5556 2.65869ZM9.00002 2.42856C9.20841 2.42856 9.40825 2.51134 9.5556 2.65869L10.2627 1.95158C9.92782 1.6167 9.47362 1.42856 9.00002 1.42856V2.42856ZM8.44443 2.65869C8.59178 2.51134 8.79164 2.42856 9.00002 2.42856V1.42856C8.52642 1.42856 8.07222 1.61669 7.73733 1.95158L8.44443 2.65869ZM8.21431 3.21427C8.21431 3.00589 8.29709 2.80604 8.44444 2.65869L7.73733 1.95158C7.40244 2.28647 7.21431 2.74067 7.21431 3.21427H8.21431ZM8.21431 3.32356V3.21427H7.21431V3.32356H8.21431ZM7.95484 4.18108C8.1229 3.9273 8.21309 3.62993 8.2143 3.32555L7.21431 3.32156C7.21387 3.43091 7.18147 3.53775 7.12109 3.62893L7.95484 4.18108ZM7.26841 4.75384C7.54818 4.63394 7.78678 4.43485 7.95484 4.18107L7.12109 3.62893C7.06071 3.7201 6.97499 3.79163 6.87448 3.8347L7.26841 4.75384ZM7.02002 4.79427H7.07145V3.79427H7.02002V4.79427ZM6.31329 4.85954C6.62013 4.91518 6.93661 4.87762 7.2219 4.7517L6.81813 3.83684C6.71564 3.88208 6.60194 3.89557 6.4917 3.87558L6.31329 4.85954ZM5.50038 4.43956C5.72331 4.65762 6.00645 4.8039 6.31329 4.85954L6.4917 3.87558C6.38146 3.85559 6.27974 3.80304 6.19965 3.7247L5.50038 4.43956ZM5.45789 4.39711L5.49646 4.43568L6.20358 3.72858L6.16501 3.69001L5.45789 4.39711ZM5.20269 4.22637C5.29807 4.26591 5.38473 4.32386 5.4577 4.39691L6.1652 3.6902C5.99935 3.52417 5.80241 3.39246 5.58563 3.30259L5.20269 4.22637ZM4.9018 4.16648C5.00506 4.16648 5.1073 4.18683 5.20268 4.22637L5.58563 3.3026C5.36884 3.21273 5.13648 3.16648 4.9018 3.16648V4.16648ZM4.60092 4.22637C4.69631 4.18683 4.79855 4.16648 4.9018 4.16648V3.16648C4.66713 3.16648 4.43476 3.21273 4.21798 3.3026L4.60092 4.22637ZM4.34591 4.39692C4.41888 4.32386 4.50554 4.26591 4.60092 4.22637L4.21798 3.3026C4.0012 3.39246 3.80426 3.52417 3.63841 3.6902L4.34591 4.39692ZM4.17497 4.65232C4.21451 4.55694 4.27246 4.47028 4.34552 4.39731L3.6388 3.68981C3.47278 3.85565 3.34106 4.0526 3.2512 4.26938L4.17497 4.65232ZM4.11508 4.9532C4.11508 4.84995 4.13543 4.7477 4.17497 4.65232L3.2512 4.26938C3.16133 4.48616 3.11508 4.71853 3.11508 4.9532H4.11508ZM4.17497 5.25408C4.13543 5.1587 4.11508 5.05646 4.11508 4.9532H3.11508C3.11508 5.18787 3.16133 5.42024 3.2512 5.63702L4.17497 5.25408ZM4.34552 5.50909C4.27246 5.43612 4.21451 5.34947 4.17497 5.25408L3.2512 5.63702C3.34106 5.85381 3.47278 6.05075 3.6388 6.21659L4.34552 5.50909ZM4.38428 5.54786L4.34571 5.50929L3.63861 6.2164L3.67718 6.25497L4.38428 5.54786ZM4.80814 6.36469C4.75251 6.05785 4.60623 5.77471 4.38816 5.55178L3.6733 6.25105C3.75164 6.33114 3.8042 6.43286 3.82419 6.5431L4.80814 6.36469ZM4.70031 7.2733C4.82622 6.988 4.86378 6.67153 4.80814 6.36469L3.82419 6.5431C3.84417 6.65334 3.83068 6.76703 3.78544 6.86953L4.70031 7.2733ZM4.1553 7.97471C4.41002 7.79253 4.60404 7.53793 4.71214 7.24401L3.77361 6.89883C3.73477 7.00442 3.66506 7.09589 3.57355 7.16134L4.1553 7.97471ZM3.28385 8.26556C3.59694 8.25824 3.90058 8.1569 4.1553 7.97471L3.57355 7.16134C3.48204 7.2268 3.37295 7.26321 3.26047 7.26584L3.28385 8.26556ZM3.2143 8.2657H3.27216V7.2657H3.2143V8.2657ZM2.65872 8.49583C2.80607 8.34848 3.00592 8.2657 3.2143 8.2657V7.2657C2.7407 7.2657 2.2865 7.45384 1.95161 7.78872L2.65872 8.49583ZM2.42859 9.05142C2.42859 8.84303 2.51137 8.64318 2.65872 8.49583L1.95161 7.78872C1.61673 8.12361 1.42859 8.57781 1.42859 9.05142H2.42859ZM2.65872 9.607C2.51137 9.45965 2.42859 9.2598 2.42859 9.05142H1.42859C1.42859 9.52502 1.61673 9.97922 1.95161 10.3141L2.65872 9.607ZM3.2143 9.83713C3.00592 9.83713 2.80607 9.75435 2.65872 9.607L1.95161 10.3141C2.2865 10.649 2.7407 10.8371 3.2143 10.8371V9.83713ZM3.32359 9.83713H3.2143V10.8371H3.32359V9.83713ZM4.1811 10.0966C3.92733 9.92854 3.62996 9.83835 3.32558 9.83713L3.32159 10.8371C3.43095 10.8376 3.53778 10.87 3.62896 10.9303L4.1811 10.0966ZM4.75387 10.783C4.63397 10.5033 4.43488 10.2647 4.18111 10.0966L3.62895 10.9303C3.72013 10.9907 3.79166 11.0764 3.83473 11.177L4.75387 10.783ZM4.85957 11.6867C4.91521 11.3799 4.87765 11.0634 4.75174 10.7781L3.83687 11.1819C3.88211 11.2844 3.8956 11.3981 3.87561 11.5083L4.85957 11.6867ZM4.43959 12.4996C4.65765 12.2767 4.80393 11.9936 4.85957 11.6867L3.87561 11.5083C3.85563 11.6185 3.80307 11.7203 3.72473 11.8004L4.43959 12.4996ZM4.39715 12.5421L4.43572 12.5035L3.7286 11.7964L3.69003 11.835L4.39715 12.5421ZM4.2264 12.7973C4.26594 12.7019 4.32389 12.6153 4.39695 12.5423L3.69023 11.8348C3.5242 12.0007 3.39249 12.1976 3.30263 12.4144L4.2264 12.7973ZM4.16651 13.0982C4.16651 12.9949 4.18686 12.8927 4.2264 12.7973L3.30263 12.4144C3.21276 12.6312 3.16651 12.8635 3.16651 13.0982H4.16651ZM4.2264 13.3991C4.18686 13.3037 4.16651 13.2015 4.16651 13.0982H3.16651C3.16651 13.3329 3.21276 13.5652 3.30263 13.782L4.2264 13.3991ZM4.39695 13.6541C4.32389 13.5811 4.26594 13.4945 4.2264 13.3991L3.30263 13.782C3.39249 13.9988 3.5242 14.1958 3.69023 14.3616L4.39695 13.6541ZM4.65235 13.825C4.55697 13.7855 4.47031 13.7275 4.39734 13.6545L3.68984 14.3612C3.85569 14.5272 4.05263 14.6589 4.26941 14.7488L4.65235 13.825ZM4.95323 13.8849C4.84998 13.8849 4.74773 13.8646 4.65235 13.825L4.26941 14.7488C4.48619 14.8387 4.71856 14.8849 4.95323 14.8849V13.8849ZM5.25411 13.825C5.15873 13.8646 5.05649 13.8849 4.95323 13.8849V14.8849C5.1879 14.8849 5.42027 14.8387 5.63705 14.7488L5.25411 13.825ZM5.50912 13.6545C5.43616 13.7275 5.3495 13.7855 5.25411 13.825L5.63705 14.7488C5.85383 14.6589 6.05078 14.5272 6.21662 14.3612L5.50912 13.6545ZM5.54789 13.6157L5.50932 13.6543L6.21643 14.3614L6.255 14.3228L5.54789 13.6157ZM6.36472 13.1919C6.05788 13.2475 5.77474 13.3938 5.55181 13.6118L6.25108 14.3267C6.33117 14.2484 6.43289 14.1958 6.54313 14.1758L6.36472 13.1919ZM7.27333 13.2997C6.98804 13.1738 6.67156 13.1362 6.36472 13.1919L6.54313 14.1758C6.65337 14.1558 6.76707 14.1693 6.86957 14.2146L7.27333 13.2997ZM7.97475 13.8447C7.79256 13.59 7.53796 13.396 7.24404 13.2879L6.89886 14.2264C7.00445 14.2652 7.09592 14.3349 7.16138 14.4265L7.97475 13.8447ZM8.2656 14.7162C8.25827 14.4031 8.15693 14.0994 7.97475 13.8447L7.16138 14.4265C7.22683 14.518 7.26324 14.6271 7.26587 14.7395L8.2656 14.7162ZM8.26573 14.7857V14.7278H7.26573V14.7857H8.26573ZM8.49586 15.3413C8.34851 15.1939 8.26573 14.9941 8.26573 14.7857H7.26573C7.26573 15.2593 7.45387 15.7135 7.78876 16.0484L8.49586 15.3413ZM9.05145 15.5714C8.84306 15.5714 8.64321 15.4886 8.49586 15.3413L7.78876 16.0484C8.12364 16.3833 8.57785 16.5714 9.05145 16.5714V15.5714ZM9.60703 15.3413C9.45968 15.4886 9.25983 15.5714 9.05145 15.5714V16.5714C9.52505 16.5714 9.97925 16.3833 10.3141 16.0484L9.60703 15.3413ZM9.83716 14.7857C9.83716 14.9941 9.75438 15.1939 9.60703 15.3413L10.3141 16.0484C10.649 15.7135 10.8372 15.2593 10.8372 14.7857H9.83716ZM9.83716 14.6764V14.7857H10.8372V14.6764H9.83716ZM10.0966 13.8189C9.92857 14.0727 9.83838 14.37 9.83717 14.6744L10.8372 14.6784C10.8376 14.5691 10.87 14.4622 10.9304 14.371L10.0966 13.8189ZM10.7831 13.2461C10.5033 13.366 10.2647 13.5651 10.0966 13.8189L10.9304 14.371C10.9908 14.2799 11.0765 14.2083 11.177 14.1653L10.7831 13.2461ZM11.6867 13.1404C11.3799 13.0848 11.0634 13.1224 10.7781 13.2483L11.1819 14.1631C11.2844 14.1179 11.3981 14.1044 11.5083 14.1244L11.6867 13.1404ZM12.4997 13.5604C12.2767 13.3424 11.9936 13.1961 11.6867 13.1404L11.5083 14.1244C11.6186 14.1444 11.7203 14.1969 11.8004 14.2753L12.4997 13.5604ZM12.5422 13.6029L12.5036 13.5643L11.7965 14.2714L11.835 14.31L12.5422 13.6029ZM12.7974 13.7736C12.702 13.7341 12.6153 13.6761 12.5423 13.6031L11.8348 14.3098C12.0007 14.4758 12.1976 14.6075 12.4144 14.6974L12.7974 13.7736ZM13.0982 13.8335C12.995 13.8335 12.8927 13.8131 12.7974 13.7736L12.4144 14.6974C12.6312 14.7872 12.8636 14.8335 13.0982 14.8335V13.8335ZM13.3991 13.7736C13.3037 13.8131 13.2015 13.8335 13.0982 13.8335V14.8335C13.3329 14.8335 13.5653 14.7872 13.7821 14.6974L13.3991 13.7736ZM13.6541 13.6031C13.5812 13.6761 13.4945 13.7341 13.3991 13.7736L13.7821 14.6974C13.9988 14.6075 14.1958 14.4758 14.3616 14.3098L13.6541 13.6031ZM13.8251 13.3477C13.7855 13.443 13.7276 13.5297 13.6545 13.6027L14.3612 14.3102C14.5273 14.1443 14.659 13.9474 14.7488 13.7306L13.8251 13.3477ZM13.885 13.0468C13.885 13.15 13.8646 13.2523 13.8251 13.3477L14.7488 13.7306C14.8387 13.5138 14.885 13.2814 14.885 13.0468H13.885ZM13.8251 12.7459C13.8646 12.8413 13.885 12.9435 13.885 13.0468H14.885C14.885 12.8121 14.8387 12.5797 14.7488 12.3629L13.8251 12.7459ZM13.6545 12.4909C13.7276 12.5639 13.7855 12.6505 13.8251 12.7459L14.7488 12.3629C14.659 12.1462 14.5273 11.9492 14.3612 11.7834L13.6545 12.4909ZM13.6158 12.4521L13.6543 12.4907L14.3614 11.7836L14.3229 11.745L13.6158 12.4521ZM13.1919 11.6353C13.2475 11.9421 13.3938 12.2253 13.6119 12.4482L14.3267 11.7489C14.2484 11.6688 14.1958 11.5671 14.1759 11.4569L13.1919 11.6353ZM9.00002 11.4286C10.3413 11.4286 11.4286 10.3412 11.4286 8.99999H10.4286C10.4286 9.78896 9.789 10.4286 9.00002 10.4286V11.4286ZM6.57145 8.99999C6.57145 10.3412 7.65875 11.4286 9.00002 11.4286V10.4286C8.21104 10.4286 7.57145 9.78896 7.57145 8.99999H6.57145ZM9.00002 6.57141C7.65875 6.57141 6.57145 7.65872 6.57145 8.99999H7.57145C7.57145 8.21101 8.21104 7.57141 9.00002 7.57141V6.57141ZM11.4286 8.99999C11.4286 7.65872 10.3413 6.57141 9.00002 6.57141V7.57141C9.789 7.57141 10.4286 8.21101 10.4286 8.99999H11.4286Z" fill="#56606B"/>
</svg>
