<svg width="18" height="18" viewBox="0 0 18 18" fill="none" xmlns="http://www.w3.org/2000/svg">
<path d="M10.9285 2.84134H5.14283C4.80184 2.84134 4.47481 2.9768 4.23369 3.21792C3.99258 3.45903 3.85712 3.78606 3.85712 4.12705V14.4128C3.85712 14.7538 3.99258 15.0808 4.23369 15.3219C4.47481 15.563 4.80184 15.6985 5.14283 15.6985H12.8571C13.1981 15.6985 13.5251 15.563 13.7663 15.3219C14.0074 15.0808 14.1428 14.7538 14.1428 14.4128V6.05563M10.9285 2.84134L14.1428 6.05563M10.9285 2.84134V6.05563H14.1428" stroke="#56606B" stroke-linecap="round" stroke-linejoin="round"/>
<path d="M8.44238 6.70505C10.2537 6.44437 6.76926 14.0377 5.89632 13.0359C4.80152 11.7809 12.2105 10.2578 11.5267 11.6729C10.7047 13.3674 7.00204 6.9136 8.44238 6.70505Z" stroke="#56606B" stroke-miterlimit="10"/>
</svg>
