<svg width="18" height="18" viewBox="0 0 18 18" fill="none" xmlns="http://www.w3.org/2000/svg">
<path d="M5.14284 7.07144V2.57144H12.8571V7.07144M5.14284 12.8572H3.85713C3.51613 12.8572 3.18911 12.7217 2.94799 12.4806C2.70687 12.2395 2.57141 11.9124 2.57141 11.5714V8.35716C2.57141 8.01616 2.70687 7.68914 2.94799 7.44802C3.18911 7.2069 3.51613 7.07144 3.85713 7.07144H14.1428C14.4838 7.07144 14.8109 7.2069 15.052 7.44802C15.2931 7.68914 15.4286 8.01616 15.4286 8.35716V11.5714C15.4286 11.9124 15.2931 12.2395 15.052 12.4806C14.8109 12.7217 14.4838 12.8572 14.1428 12.8572H12.8571M5.14284 10.2857H12.8571V15.4286H5.14284V10.2857Z" stroke="#56606B" stroke-linecap="round" stroke-linejoin="round"/>
</svg>
