<svg width="13" height="13" viewBox="0 0 13 13" fill="none" xmlns="http://www.w3.org/2000/svg">
<path d="M2.32818 4.6298C2.25081 3.54527 2.84398 2.82225 3.15024 2.5963C3.63381 2.16055 4.06902 2.3058 4.3108 2.5963C4.55259 2.8868 5.13287 3.56463 5.37465 3.90355C5.61643 4.24247 5.61643 4.6298 5.37465 4.9203C5.18122 5.1527 4.84273 5.43674 4.69766 5.54971C4.79437 5.88863 5.11352 6.71171 5.61643 7.29271C6.11934 7.87371 6.92206 8.43857 7.26056 8.64837C7.30891 8.59996 7.49267 8.43534 7.84084 8.16421C8.27605 7.82529 8.6629 7.87371 8.90468 8.16421L9.87181 9.32621C10.1136 9.61671 10.5488 9.95562 9.7751 10.6819C9.0014 11.4081 7.93755 11.1176 7.16384 10.8755C6.39014 10.6335 5.47136 9.9072 4.9878 9.42304C4.50423 8.93887 3.92395 8.26104 3.34367 7.43796C2.76339 6.61488 2.42489 5.98546 2.32818 4.6298Z" fill="#3E64B5"/>
<path d="M10.2145 5.57129H7.89307M7.89307 5.57129V3.24986M7.89307 5.57129L11.1431 2.32129" stroke="#3E64B5" stroke-linecap="round" stroke-linejoin="round"/>
</svg>
