<svg width="20" height="20" viewBox="0 0 20 20" fill="none" xmlns="http://www.w3.org/2000/svg">
<path d="M15.7143 10.0003V17.1431H4.28575V10.0003M10 17.1431V6.42885M10 6.42885H6.78575C6.31215 6.42885 5.85794 6.24071 5.52306 5.90583C5.18817 5.57094 5.00003 5.11674 5.00003 4.64314C5.00003 4.16954 5.18817 3.71533 5.52306 3.38045C5.85794 3.04556 6.31215 2.85742 6.78575 2.85742C9.28575 2.85742 10 6.42885 10 6.42885ZM10 6.42885H13.2143C13.6879 6.42885 14.1421 6.24071 14.477 5.90583C14.8119 5.57094 15 5.11674 15 4.64314C15 4.16954 14.8119 3.71533 14.477 3.38045C14.1421 3.04556 13.6879 2.85742 13.2143 2.85742C10.7143 2.85742 10 6.42885 10 6.42885ZM2.85718 6.42885H17.1429V10.0003H2.85718V6.42885Z" stroke="#6B7682" stroke-linecap="round" stroke-linejoin="round"/>
</svg>
