<svg width="20" height="20" viewBox="0 0 20 20" fill="none" xmlns="http://www.w3.org/2000/svg">
<path d="M3.08554 5.65611L9.99983 9.11325M9.99983 9.11325L16.9141 5.65611M9.99983 9.11325L9.99983 17.5132M6.4284 3.75611L13.5713 7.32753M10.6355 2.29182L16.3498 5.14896C16.5878 5.26723 16.7881 5.44955 16.9282 5.67542C17.0683 5.90129 17.1425 6.16176 17.1427 6.42753V13.2347C17.1425 13.5005 17.0683 13.7609 16.9282 13.9868C16.7881 14.2127 16.5878 14.395 16.3498 14.5132L10.6355 17.3704C10.4371 17.4697 10.2182 17.5214 9.99625 17.5214C9.77432 17.5214 9.55544 17.4697 9.35697 17.3704L3.64268 14.5132C3.40492 14.3934 3.20536 14.2096 3.06653 13.9824C2.9277 13.7552 2.85512 13.4938 2.85697 13.2275V6.42753C2.85711 6.16176 2.93139 5.90129 3.07145 5.67542C3.21152 5.44955 3.41182 5.26723 3.64983 5.14896L9.36411 2.29182C9.56165 2.19366 9.77924 2.14258 9.99983 2.14258C10.2204 2.14258 10.438 2.19366 10.6355 2.29182Z" stroke="#603973" stroke-linecap="round" stroke-linejoin="round"/>
</svg>
