<svg width="20" height="20" viewBox="0 0 20 20" fill="none" xmlns="http://www.w3.org/2000/svg">
<path d="M3.90894 5.57101L6.05179 2.71387H14.6232L16.7661 5.57101M3.90894 5.57101V15.571C3.90894 15.9499 4.05945 16.3133 4.32735 16.5812C4.59526 16.8491 4.95863 16.9996 5.33751 16.9996H15.3375C15.7164 16.9996 16.0798 16.8491 16.3477 16.5812C16.6156 16.3133 16.7661 15.9499 16.7661 15.571V5.57101M3.90894 5.57101H16.7661M13.1947 8.42815C13.1947 9.18591 12.8936 9.91264 12.3578 10.4485C11.822 10.9843 11.0953 11.2853 10.3375 11.2853C9.57975 11.2853 8.85302 10.9843 8.3172 10.4485C7.78138 9.91264 7.48036 9.18591 7.48036 8.42815" stroke="#6B7682" stroke-linecap="round" stroke-linejoin="round"/>
</svg>
