<svg width="21" height="20" viewBox="0 0 21 20" fill="none" xmlns="http://www.w3.org/2000/svg">
<path d="M16.4618 10.0003V17.1431H5.03328V10.0003M10.7476 17.1431V6.42885M10.7476 6.42885H7.53328C7.05968 6.42885 6.60547 6.24071 6.27059 5.90583C5.9357 5.57094 5.74756 5.11674 5.74756 4.64314C5.74756 4.16954 5.9357 3.71533 6.27059 3.38045C6.60547 3.04556 7.05968 2.85742 7.53328 2.85742C10.0333 2.85742 10.7476 6.42885 10.7476 6.42885ZM10.7476 6.42885H13.9618C14.4354 6.42885 14.8897 6.24071 15.2245 5.90583C15.5594 5.57094 15.7476 5.11674 15.7476 4.64314C15.7476 4.16954 15.5594 3.71533 15.2245 3.38045C14.8897 3.04556 14.4354 2.85742 13.9618 2.85742C11.4618 2.85742 10.7476 6.42885 10.7476 6.42885ZM3.60471 6.42885H17.8904V10.0003H3.60471V6.42885Z" stroke="#603973" stroke-linecap="round" stroke-linejoin="round"/>
</svg>
