<svg width="21" height="20" viewBox="0 0 21 20" fill="none" xmlns="http://www.w3.org/2000/svg">
<mask id="path-1-inside-1" fill="white">
<path d="M6.46185 17.1431H15.0333C15.8223 17.1431 16.4619 16.5035 16.4619 15.7146V4.28599C16.4619 3.49701 15.8223 2.85742 15.0333 2.85742H6.46185C5.67287 2.85742 5.03328 3.49701 5.03328 4.28599V15.7146C5.03328 16.5035 5.67287 17.1431 6.46185 17.1431Z"/>
</mask>
<path d="M15.0333 16.1431H6.46185V18.1431H15.0333V16.1431ZM6.46185 16.1431C6.22516 16.1431 6.03328 15.9513 6.03328 15.7146H4.03328C4.03328 17.0558 5.12059 18.1431 6.46185 18.1431V16.1431ZM6.03328 15.7146V4.28599H4.03328V15.7146H6.03328ZM6.03328 4.28599C6.03328 4.0493 6.22516 3.85742 6.46185 3.85742V1.85742C5.12059 1.85742 4.03328 2.94473 4.03328 4.28599H6.03328ZM6.46185 3.85742H15.0333V1.85742H6.46185V3.85742ZM15.0333 3.85742C15.27 3.85742 15.4619 4.0493 15.4619 4.28599H17.4619C17.4619 2.94473 16.3745 1.85742 15.0333 1.85742V3.85742ZM15.4619 4.28599V15.7146H17.4619V4.28599H15.4619ZM15.4619 15.7146C15.4619 15.9513 15.27 16.1431 15.0333 16.1431V18.1431C16.3745 18.1431 17.4619 17.0558 17.4619 15.7146H15.4619Z" fill="#603973" mask="url(#path-1-inside-1)"/>
<path d="M11.4619 14.2856C11.4619 14.6801 11.1421 14.9999 10.7476 14.9999C10.3531 14.9999 10.0333 14.6801 10.0333 14.2856C10.0333 13.8911 10.3531 13.5713 10.7476 13.5713C11.1421 13.5713 11.4619 13.8911 11.4619 14.2856Z" fill="#603973"/>
</svg>
