<svg width="29" height="29" viewBox="0 0 29 29" fill="none" xmlns="http://www.w3.org/2000/svg">
<path d="M24.385 6.23303C24.385 7.29235 21.3342 8.13981 17.563 8.13981C13.7918 8.13981 10.741 7.29235 10.741 6.23303C10.741 5.17371 13.7918 4.32625 17.563 4.32625C21.3342 4.32625 24.385 5.17371 24.385 6.23303Z" stroke="#555555" stroke-miterlimit="10" stroke-linecap="round"/>
<path d="M24.3851 9.62286C24.3851 10.6822 21.3342 11.5296 17.5631 11.5296C16.8427 11.5296 16.1648 11.4873 15.4868 11.4449C15.402 11.4449 11.3342 10.9364 11.2919 10.8941" stroke="#555555" stroke-miterlimit="10" stroke-linecap="round"/>
<path d="M24.385 13.3095C24.385 14.3265 21.5037 15.1739 17.902 15.2163" stroke="#555555" stroke-miterlimit="10" stroke-linecap="round"/>
<path d="M24.385 16.9956C24.385 18.0126 21.546 18.8177 17.9867 18.9024" stroke="#555555" stroke-miterlimit="10" stroke-linecap="round"/>
<path d="M10.741 6.82614V11.1482" stroke="#555555" stroke-miterlimit="10" stroke-linecap="round"/>
<path d="M24.385 6.82614V16.9533" stroke="#555555" stroke-miterlimit="10" stroke-linecap="round"/>
<path d="M17.8172 17.9282C17.8172 21.657 14.8087 24.6654 11.0799 24.6654C7.39348 24.6654 4.38501 21.657 4.38501 17.9282C4.38501 14.1993 7.39348 11.1909 11.1223 11.1909C14.8087 11.2332 17.8172 14.2417 17.8172 17.9282Z" stroke="#555555" stroke-miterlimit="10" stroke-linecap="round"/>
<path d="M12.4086 18.6237C12.5051 18.7424 12.5754 18.8765 12.616 19.0421C12.5696 18.8908 12.4997 18.7516 12.4086 18.6237Z" stroke="#555555"/>
</svg>
