<svg width="21" height="20" viewBox="0 0 21 20" fill="none" xmlns="http://www.w3.org/2000/svg">
<path d="M4.74626 5.57101L6.88912 2.71387H15.4605L17.6034 5.57101M4.74626 5.57101V15.571C4.74626 15.9499 4.89677 16.3133 5.16468 16.5812C5.43259 16.8491 5.79595 16.9996 6.17483 16.9996H16.1748C16.5537 16.9996 16.9171 16.8491 17.185 16.5812C17.4529 16.3133 17.6034 15.9499 17.6034 15.571V5.57101M4.74626 5.57101H17.6034M14.032 8.42815C14.032 9.18591 13.731 9.91264 13.1951 10.4485C12.6593 10.9843 11.9326 11.2853 11.1748 11.2853C10.4171 11.2853 9.69035 10.9843 9.15453 10.4485C8.61871 9.91264 8.31769 9.18591 8.31769 8.42815" stroke="#603973" stroke-linecap="round" stroke-linejoin="round"/>
</svg>
