<svg width="20" height="20" viewBox="0 0 20 20" fill="none" xmlns="http://www.w3.org/2000/svg">
<path d="M11.4285 2.85742H5.71422C5.33534 2.85742 4.97197 3.00793 4.70406 3.27584C4.43615 3.54375 4.28564 3.90711 4.28564 4.28599V15.7146C4.28564 16.0934 4.43615 16.4568 4.70406 16.7247C4.97197 16.9926 5.33534 17.1431 5.71422 17.1431H14.2856C14.6645 17.1431 15.0279 16.9926 15.2958 16.7247C15.5637 16.4568 15.7142 16.0934 15.7142 15.7146V7.14314M11.4285 2.85742L15.7142 7.14314M11.4285 2.85742V7.14314H15.7142M12.8571 10.7146H7.14279M12.8571 13.5717H7.14279M8.57136 7.85742H7.14279" stroke="#6B7682" stroke-linecap="round" stroke-linejoin="round"/>
</svg>
